<svg width="16" height="14" viewBox="0 0 16 14" fill="none" xmlns="http://www.w3.org/2000/svg">
<g clip-path="url(#clip0_826_1675)">
<path d="M16 3.71875C16 4.32277 15.5025 4.8125 14.8889 4.8125C14.882 4.8125 14.8762 4.80903 14.8693 4.80895L13.466 12.4078C13.3889 12.8215 13.0222 13.125 12.5916 13.125H3.40831C2.97886 13.125 2.61053 12.8226 2.53386 12.4067L1.13081 4.80977C1.12386 4.80977 1.11803 4.8125 1.08609 4.8125C0.472476 4.8125 -0.0250244 4.32277 -0.0250244 3.71875C-0.0250244 3.11473 0.497476 2.625 1.08609 2.625C1.6747 2.625 2.1972 3.11473 2.1972 3.71875C2.1972 3.96479 2.09939 4.18059 1.96006 4.36324L4.44978 6.32379C4.89173 6.67188 5.547 6.53007 5.80006 6.03176L7.40006 2.88176C7.08609 2.68898 6.86386 2.36086 6.86386 1.96875C6.86386 1.36473 7.38609 0.875 7.99998 0.875C8.61386 0.875 9.08609 1.36473 9.08609 1.96875C9.08609 2.36086 8.86489 2.68898 8.54997 2.88203L10.15 6.03203C10.4031 6.53023 11.0586 6.67188 11.5003 6.32406L13.99 4.36352C13.875 4.18086 13.7778 3.94023 13.7778 3.71875C13.7778 3.11445 14.275 2.625 14.8889 2.625C15.5028 2.625 16 3.11445 16 3.71875Z" fill="white"/>
</g>
<defs>
<clipPath id="clip0_826_1675">
<rect width="16" height="14" fill="white"/>
</clipPath>
</defs>
</svg>
