<svg width="27" height="23" viewBox="0 0 27 23" fill="none" xmlns="http://www.w3.org/2000/svg">
<path d="M13.5 23C13.2388 23 13.0179 22.9102 12.8371 22.7305L3.43527 13.7161C3.33482 13.6363 3.19671 13.5065 3.02093 13.3268C2.84515 13.1471 2.56641 12.8202 2.18471 12.346C1.80301 11.8719 1.4615 11.3852 1.16016 10.8861C0.858817 10.3869 0.590123 9.78299 0.354074 9.07422C0.118025 8.36545 0 7.67665 0 7.00781C0 4.81163 0.637835 3.09462 1.9135 1.85677C3.18917 0.618924 4.95201 0 7.20201 0C7.82478 0 8.4601 0.107313 9.10798 0.32194C9.75586 0.536567 10.3585 0.826063 10.916 1.19043C11.4735 1.5548 11.9531 1.8967 12.3549 2.21615C12.7567 2.53559 13.1384 2.875 13.5 3.23438C13.8616 2.875 14.2433 2.53559 14.6451 2.21615C15.0469 1.8967 15.5265 1.5548 16.084 1.19043C16.6415 0.826063 17.2441 0.536567 17.892 0.32194C18.5399 0.107313 19.1752 0 19.798 0C22.048 0 23.8108 0.618924 25.0865 1.85677C26.3622 3.09462 27 4.81163 27 7.00781C27 9.21397 25.8499 11.4601 23.5497 13.7461L14.1629 22.7305C13.9821 22.9102 13.7612 23 13.5 23Z" fill="#2BB6FF"/>
</svg>
