<svg width="27" height="23" viewBox="0 0 27 23" fill="none" xmlns="http://www.w3.org/2000/svg">
<path d="M25.0714 7.00781C25.0714 6.19922 24.9634 5.48546 24.7475 4.86654C24.5315 4.24761 24.2553 3.75597 23.9188 3.3916C23.5823 3.02724 23.173 2.73025 22.6908 2.50065C22.2087 2.27105 21.7366 2.11632 21.2746 2.03646C20.8125 1.9566 20.3203 1.91667 19.798 1.91667C19.2757 1.91667 18.7132 2.04395 18.1105 2.2985C17.5078 2.55306 16.9528 2.8725 16.4456 3.25684C15.9383 3.64117 15.5039 4.00054 15.1423 4.33496C14.7807 4.66938 14.4794 4.97635 14.2383 5.25586C14.0575 5.47548 13.8114 5.58529 13.5 5.58529C13.1886 5.58529 12.9425 5.47548 12.7617 5.25586C12.5206 4.97635 12.2193 4.66938 11.8577 4.33496C11.4961 4.00054 11.0617 3.64117 10.5544 3.25684C10.0472 2.8725 9.49219 2.55306 8.88951 2.2985C8.28683 2.04395 7.72433 1.91667 7.20201 1.91667C6.67969 1.91667 6.1875 1.9566 5.72545 2.03646C5.26339 2.11632 4.79129 2.27105 4.30915 2.50065C3.82701 2.73025 3.41769 3.02724 3.08119 3.3916C2.7447 3.75597 2.46847 4.24761 2.25251 4.86654C2.03655 5.48546 1.92857 6.19922 1.92857 7.00781C1.92857 8.6849 2.86775 10.4568 4.74609 12.3236L13.5 20.709L22.2388 12.3385C24.1272 10.4618 25.0714 8.6849 25.0714 7.00781ZM27 7.00781C27 9.21397 25.8499 11.4601 23.5497 13.7461L14.1629 22.7305C13.9821 22.9102 13.7612 23 13.5 23C13.2388 23 13.0179 22.9102 12.8371 22.7305L3.43527 13.7161C3.33482 13.6363 3.19671 13.5065 3.02093 13.3268C2.84515 13.1471 2.56641 12.8202 2.18471 12.346C1.80301 11.8719 1.4615 11.3852 1.16016 10.8861C0.858817 10.3869 0.590123 9.78299 0.354074 9.07422C0.118025 8.36545 0 7.67665 0 7.00781C0 4.81163 0.637835 3.09462 1.9135 1.85677C3.18917 0.618924 4.95201 0 7.20201 0C7.82478 0 8.4601 0.107313 9.10798 0.32194C9.75586 0.536567 10.3585 0.826063 10.916 1.19043C11.4735 1.5548 11.9531 1.8967 12.3549 2.21615C12.7567 2.53559 13.1384 2.875 13.5 3.23438C13.8616 2.875 14.2433 2.53559 14.6451 2.21615C15.0469 1.8967 15.5265 1.5548 16.084 1.19043C16.6415 0.826063 17.2441 0.536567 17.892 0.32194C18.5399 0.107313 19.1752 0 19.798 0C22.048 0 23.8108 0.618924 25.0865 1.85677C26.3622 3.09462 27 4.81163 27 7.00781Z" fill="#2BB6FF"/>
</svg>
