<svg width="30" height="36" viewBox="0 0 30 36" fill="none" xmlns="http://www.w3.org/2000/svg">
<path d="M8.44376 15.5484V10.7489C8.44376 7.14935 11.3795 4.23065 15 4.23065C17.9303 4.23065 20.4148 6.14261 21.2555 8.78005C21.591 9.83245 22.4558 10.7489 23.5604 10.7489H23.8157C24.9203 10.7489 25.8352 9.8452 25.6308 8.75971C24.6918 3.77324 20.288 0 15 0C9.0284 0 4.18847 4.8119 4.18847 10.7489V15.5484H4C1.79086 15.5484 0 17.3392 0 19.5484V32C0 34.2091 1.79086 36 4 36H26C28.2091 36 30 34.2091 30 32V19.5484C30 17.3392 28.2091 15.5484 26 15.5484H8.44376ZM16.3321 24.5785V31.6323H13.6721V24.5785C12.9496 24.1342 12.4694 23.3413 12.4694 22.4362C12.4694 21.0453 13.6011 19.916 15.0042 19.916C16.4031 19.916 17.539 21.0453 17.539 22.4362C17.5348 23.3413 17.0504 24.1342 16.3321 24.5785Z" fill="white"/>
</svg>
