<svg width="28" height="28" viewBox="0 0 28 28" fill="none" xmlns="http://www.w3.org/2000/svg">
<path d="M16.1235 25.6667H11.8768C11.6107 25.6668 11.3526 25.5758 11.1453 25.4091C10.938 25.2423 10.7939 25.0096 10.737 24.7497L10.2621 22.5517C9.62872 22.2742 9.02809 21.9271 8.47132 21.5169L6.32815 22.1994C6.07447 22.2803 5.80076 22.272 5.55246 22.1758C5.30416 22.0797 5.09621 21.9015 4.96315 21.6709L2.83515 17.9947C2.70349 17.7639 2.65406 17.4952 2.69497 17.2326C2.73587 16.97 2.86468 16.7291 3.06032 16.5492L4.72282 15.0325C4.64721 14.3455 4.64721 13.6522 4.72282 12.9652L3.06032 11.452C2.8644 11.2721 2.73542 11.031 2.69451 10.7681C2.6536 10.5053 2.70319 10.2363 2.83515 10.0054L4.95848 6.32687C5.09154 6.09624 5.29949 5.91806 5.54779 5.82193C5.79609 5.72579 6.06981 5.71748 6.32348 5.79837L8.46665 6.48087C8.75132 6.27087 9.04765 6.07487 9.35332 5.89754C9.64848 5.73187 9.95182 5.58137 10.2621 5.44721L10.7381 3.25154C10.7948 2.9916 10.9386 2.75884 11.1457 2.59185C11.3528 2.42485 11.6108 2.33365 11.8768 2.33337H16.1235C16.3895 2.33365 16.6475 2.42485 16.8546 2.59185C17.0617 2.75884 17.2055 2.9916 17.2621 3.25154L17.7428 5.44837C18.0695 5.59304 18.3892 5.75521 18.6983 5.93604C18.9865 6.10287 19.2653 6.28604 19.5336 6.48321L21.678 5.80071C21.9315 5.72011 22.205 5.72857 22.453 5.8247C22.7011 5.92082 22.9088 6.09882 23.0418 6.32921L25.1651 10.0077C25.4358 10.4825 25.3425 11.0834 24.94 11.4532L23.2775 12.9699C23.3531 13.6569 23.3531 14.3502 23.2775 15.0372L24.94 16.5539C25.3425 16.9249 25.4358 17.5245 25.1651 17.9994L23.0418 21.6779C22.9088 21.9085 22.7008 22.0867 22.4525 22.1828C22.2042 22.279 21.9305 22.2873 21.6768 22.2064L19.5336 21.5239C18.9773 21.9338 18.3771 22.2805 17.744 22.5575L17.2621 24.7497C17.2053 25.0094 17.0613 25.2419 16.8543 25.4087C16.6472 25.5755 16.3894 25.6665 16.1235 25.6667ZM13.9955 9.33337C12.7578 9.33337 11.5708 9.82504 10.6957 10.7002C9.82048 11.5754 9.32882 12.7624 9.32882 14C9.32882 15.2377 9.82048 16.4247 10.6957 17.2999C11.5708 18.175 12.7578 18.6667 13.9955 18.6667C15.2332 18.6667 16.4201 18.175 17.2953 17.2999C18.1705 16.4247 18.6622 15.2377 18.6622 14C18.6622 12.7624 18.1705 11.5754 17.2953 10.7002C16.4201 9.82504 15.2332 9.33337 13.9955 9.33337Z" fill="white"/>
</svg>
