<svg width="107" height="156" viewBox="0 0 107 156" fill="none" xmlns="http://www.w3.org/2000/svg">
<g clip-path="url(#clip0_816_1437)">
<path d="M93.2477 70.1373C95.9493 66.4833 99.9818 61.0309 101.422 58.6405C111.177 42.4574 106.878 20.6728 91.6352 9.04912C90.6807 8.32031 89.6988 7.62633 88.7193 6.98458C79.9815 1.26355 70.314 -0.962678 59.9886 0.370571C49.7404 1.69387 39.9234 7.02189 33.7227 14.6259C31.5345 17.3123 25.0397 27.0156 23.5194 29.1548L37.7577 38.4776C38.0817 38.0075 38.4032 37.5398 38.7197 37.0797C44.3995 28.819 48.8856 22.297 55.2383 19.3519C62.902 15.7974 71.2262 16.1531 78.0724 20.327C78.3166 20.4763 78.5534 20.6255 78.7877 20.7797C85.5816 25.2272 89.2377 32.4407 88.8215 40.5695C88.4975 46.8825 84.966 52.6011 79.812 59.7698C72.0436 55.5437 63.0665 53.1284 53.5037 53.1284C23.9531 53.1284 0 76.1568 0 104.565C0 132.972 23.9531 156.002 53.4988 156.002C83.0444 156.002 106.998 132.974 106.998 104.565C107 91.325 101.794 79.2536 93.2477 70.1373Z" fill="white"/>
<g clip-path="url(#clip1_816_1437)">
<path d="M72.9028 99.7796C68.6539 88.4967 54.8449 93.5408 53.5835 99.1823C51.8574 93.209 38.3803 88.7622 34.2641 99.7796C29.6833 112.058 51.9901 123.076 53.5835 124.868C55.1768 123.407 77.4837 111.859 72.9028 99.7796Z" fill="#2AABF9"/>
</g>
</g>
<defs>
<clipPath id="clip0_816_1437">
<rect width="107" height="156" fill="white"/>
</clipPath>
<clipPath id="clip1_816_1437">
<rect width="39.8761" height="31.8388" fill="white" transform="translate(33.6454 93.0289)"/>
</clipPath>
</defs>
</svg>
