<svg width="375" height="139" viewBox="0 0 375 139" fill="none" xmlns="http://www.w3.org/2000/svg">
<path d="M78.2338 101V62.408C78.2338 57.704 79.6258 53.96 82.4098 51.176C85.2418 48.344 89.2738 46.928 94.5058 46.928C96.1858 46.928 97.8418 47.096 99.4738 47.432C101.106 47.768 102.474 48.272 103.578 48.944L100.194 58.592C99.6178 58.256 98.9698 57.992 98.2498 57.8C97.5298 57.56 96.8098 57.44 96.0898 57.44C94.6498 57.44 93.5218 57.872 92.7058 58.736C91.9378 59.552 91.5538 60.824 91.5538 62.552V65.36L91.9138 71.048V101H78.2338ZM72.5458 73.64V63.416H100.842V73.64H72.5458ZM129.029 101V93.728L128.093 91.928V78.536C128.093 76.376 127.421 74.72 126.077 73.568C124.781 72.368 122.693 71.768 119.813 71.768C117.941 71.768 116.045 72.08 114.125 72.704C112.205 73.28 110.573 74.096 109.229 75.152L104.621 65.864C106.829 64.424 109.469 63.32 112.541 62.552C115.661 61.736 118.757 61.328 121.829 61.328C128.165 61.328 133.061 62.792 136.517 65.72C140.021 68.6 141.773 73.136 141.773 79.328V101H129.029ZM117.509 101.648C114.389 101.648 111.749 101.12 109.589 100.064C107.429 99.008 105.773 97.568 104.621 95.744C103.517 93.92 102.965 91.88 102.965 89.624C102.965 87.224 103.565 85.16 104.765 83.432C106.013 81.656 107.909 80.312 110.453 79.4C112.997 78.44 116.285 77.96 120.317 77.96H129.533V85.088H122.189C119.981 85.088 118.421 85.448 117.509 86.168C116.645 86.888 116.213 87.848 116.213 89.048C116.213 90.248 116.669 91.208 117.581 91.928C118.493 92.648 119.741 93.008 121.325 93.008C122.813 93.008 124.157 92.648 125.357 91.928C126.605 91.16 127.517 90.008 128.093 88.472L129.965 93.512C129.245 96.2 127.829 98.24 125.717 99.632C123.653 100.976 120.917 101.648 117.509 101.648ZM175.824 61.328C178.848 61.328 181.584 61.952 184.032 63.2C186.48 64.4 188.4 66.272 189.792 68.816C191.232 71.36 191.952 74.648 191.952 78.68V101H178.272V80.912C178.272 78.128 177.696 76.112 176.544 74.864C175.44 73.568 173.88 72.92 171.864 72.92C170.424 72.92 169.104 73.256 167.904 73.928C166.704 74.552 165.768 75.536 165.096 76.88C164.424 78.224 164.088 79.976 164.088 82.136V101H150.408V61.976H163.44V73.064L160.92 69.824C162.408 66.992 164.448 64.88 167.04 63.488C169.632 62.048 172.56 61.328 175.824 61.328ZM214.724 101.648C211.412 101.648 208.172 101.264 205.004 100.496C201.884 99.728 199.364 98.768 197.444 97.616L201.548 88.256C203.372 89.36 205.508 90.248 207.956 90.92C210.404 91.544 212.804 91.856 215.156 91.856C217.46 91.856 219.044 91.616 219.908 91.136C220.82 90.656 221.276 90.008 221.276 89.192C221.276 88.424 220.844 87.872 219.98 87.536C219.164 87.152 218.06 86.864 216.668 86.672C215.324 86.48 213.836 86.264 212.204 86.024C210.572 85.784 208.916 85.472 207.236 85.088C205.604 84.656 204.092 84.032 202.7 83.216C201.356 82.352 200.276 81.2 199.46 79.76C198.644 78.32 198.236 76.496 198.236 74.288C198.236 71.792 198.956 69.584 200.396 67.664C201.884 65.696 204.044 64.16 206.876 63.056C209.708 61.904 213.164 61.328 217.244 61.328C219.98 61.328 222.74 61.616 225.524 62.192C228.356 62.72 230.732 63.536 232.652 64.64L228.548 73.928C226.628 72.824 224.708 72.08 222.788 71.696C220.868 71.264 219.044 71.048 217.316 71.048C215.012 71.048 213.38 71.312 212.42 71.84C211.508 72.368 211.052 73.016 211.052 73.784C211.052 74.552 211.46 75.152 212.276 75.584C213.092 75.968 214.172 76.28 215.516 76.52C216.908 76.712 218.42 76.928 220.052 77.168C221.684 77.36 223.316 77.672 224.948 78.104C226.628 78.536 228.14 79.184 229.484 80.048C230.876 80.864 231.98 81.992 232.796 83.432C233.612 84.824 234.02 86.624 234.02 88.832C234.02 91.232 233.276 93.392 231.788 95.312C230.348 97.232 228.188 98.768 225.308 99.92C222.476 101.072 218.948 101.648 214.724 101.648ZM239.915 101V47.576H253.595V101H239.915ZM269.182 115.616C267.118 115.616 265.03 115.28 262.918 114.608C260.854 113.984 259.174 113.144 257.878 112.088L262.63 102.512C263.446 103.232 264.382 103.784 265.438 104.168C266.542 104.6 267.622 104.816 268.678 104.816C270.166 104.816 271.342 104.48 272.206 103.808C273.07 103.136 273.814 102.08 274.438 100.64L276.238 96.104L277.318 94.736L290.566 61.976H303.598L286.75 102.584C285.406 105.944 283.846 108.56 282.07 110.432C280.342 112.352 278.398 113.696 276.238 114.464C274.126 115.232 271.774 115.616 269.182 115.616ZM274.51 102.656L257.302 61.976H271.342L284.014 93.512L274.51 102.656Z" fill="white"/>
</svg>
