<svg width="307" height="103" viewBox="0 0 307 103" fill="none" xmlns="http://www.w3.org/2000/svg">
<path d="M20.0511 72.6C19.0311 72.6 18.0411 72.57 17.0811 72.51C16.1811 72.45 15.3111 72.36 14.4711 72.24C9.67106 71.46 6.22106 70.23 4.12105 68.55C2.02105 66.87 0.971055 65.01 0.971055 62.97C0.971055 61.17 1.66105 59.37 3.04106 57.57C4.48106 55.71 6.40105 54.03 8.80105 52.53C11.2611 50.97 14.0811 49.74 17.2611 48.84C20.4411 47.88 23.8311 47.4 27.4311 47.4C28.3911 47.4 29.5011 47.49 30.7611 47.67C32.0211 47.79 32.8311 47.94 33.1911 48.12C33.5511 48.3 33.7311 48.54 33.7311 48.84C33.7311 49.26 33.3711 49.47 32.6511 49.47H32.1111C31.5111 49.47 30.8811 49.44 30.2211 49.38C29.5611 49.26 28.9011 49.2 28.2411 49.2C25.3611 49.2 22.6311 49.62 20.0511 50.46C17.4711 51.3 15.1911 52.38 13.2111 53.7C11.2311 55.02 9.67106 56.49 8.53106 58.11C7.39105 59.67 6.82105 61.2 6.82105 62.7C6.82105 64.38 7.57106 65.88 9.07106 67.2C10.6311 68.52 13.1511 69.45 16.6311 69.99C17.2911 70.05 17.9811 70.11 18.7011 70.17C19.4211 70.29 20.1111 70.35 20.7711 70.35C24.0711 70.35 27.2211 69.81 30.2211 68.73C33.2211 67.65 35.8911 66.24 38.2311 64.5C40.6311 62.7 42.5211 60.75 43.9011 58.65C45.2811 56.55 45.9711 54.51 45.9711 52.53C45.9711 51.09 45.5511 49.74 44.7111 48.48C43.9311 47.22 42.6111 46.11 40.7511 45.15C38.5911 44.07 36.2511 43.17 33.7311 42.45C31.2711 41.67 28.7811 40.92 26.2611 40.2C23.7411 39.48 21.3411 38.67 19.0611 37.77C16.7811 36.87 14.7711 35.7 13.0311 34.26C11.7711 33.24 10.8411 32.07 10.2411 30.75C9.70105 29.43 9.43105 28.05 9.43105 26.61C9.43105 24.87 9.82105 23.16 10.6011 21.48C11.3811 19.74 12.4311 18.15 13.7511 16.71C15.8511 14.49 18.3111 12.69 21.1311 11.31C23.9511 9.87 26.9211 8.79 30.0411 8.07C33.1611 7.35 36.1911 6.99 39.1311 6.99H39.4911C45.1911 6.99 49.3311 7.89 51.9111 9.69C54.5511 11.43 55.8711 13.44 55.8711 15.72C55.8711 17.52 55.0911 19.32 53.5311 21.12C51.9711 22.86 49.7811 24.33 46.9611 25.53C44.1411 26.67 40.7811 27.24 36.8811 27.24H36.5211C36.1611 27.24 35.8311 27.09 35.5311 26.79C35.2911 26.43 35.1711 26.13 35.1711 25.89C35.1711 25.59 35.3211 25.44 35.6211 25.44C38.2611 25.44 40.7511 24.84 43.0911 23.64C45.4911 22.44 47.4111 20.97 48.8511 19.23C50.3511 17.43 51.1011 15.72 51.1011 14.1C51.1011 12.72 50.3811 11.52 48.9411 10.5C47.5611 9.42 45.1911 8.88 41.8311 8.88H41.5611C38.6811 8.88 35.7411 9.36 32.7411 10.32C29.8011 11.28 27.0711 12.54 24.5511 14.1C22.0311 15.66 19.9911 17.4 18.4311 19.32C16.8711 21.18 16.0911 23.07 16.0911 24.99C16.0911 26.13 16.4211 27.24 17.0811 28.32C17.7411 29.4 18.8211 30.39 20.3211 31.29C22.2411 32.49 24.5811 33.48 27.3411 34.26C30.1611 35.04 33.0711 35.85 36.0711 36.69C39.1311 37.47 41.9811 38.43 44.6211 39.57C47.2611 40.71 49.3911 42.21 51.0111 44.07C52.6911 45.87 53.5311 48.21 53.5311 51.09C53.5311 51.69 53.5011 52.32 53.4411 52.98C53.3811 53.64 53.2611 54.3 53.0811 54.96C52.3011 58.14 50.7411 60.87 48.4011 63.15C46.0611 65.37 43.2711 67.17 40.0311 68.55C36.7911 69.93 33.4011 70.95 29.8611 71.61C26.3811 72.27 23.1111 72.6 20.0511 72.6ZM54.3621 99.96C52.2621 99.96 50.7921 98.94 49.9521 96.9C49.0521 94.86 48.6021 92.34 48.6021 89.34C48.6021 88.08 48.6621 86.73 48.7821 85.29C48.9021 83.91 49.0821 82.53 49.3221 81.15C49.6221 79.23 50.0421 77.34 50.5821 75.48C51.1221 73.62 51.6921 71.85 52.2921 70.17C53.1321 67.77 54.0621 65.52 55.0821 63.42C56.1621 61.26 56.7021 58.89 56.7021 56.31V55.95C56.7021 52.41 56.5521 49.11 56.2521 46.05C56.0121 42.99 55.6821 40.35 55.2621 38.13C54.9021 35.91 54.5421 34.29 54.1821 33.27C55.3821 32.91 56.4021 32.49 57.2421 32.01C58.0821 31.53 58.8621 31.26 59.5821 31.2H60.0321C61.1721 31.2 61.8921 31.8 62.1921 33C62.4921 34.14 62.6721 35.52 62.7321 37.14C62.7921 38.22 62.8221 39.63 62.8221 41.37C62.8221 43.11 62.8521 45.03 62.9121 47.13C63.7521 44.13 64.7421 41.22 65.8821 38.4C67.0221 35.58 68.2821 33.27 69.6621 31.47C71.0421 29.61 72.4521 28.68 73.8921 28.68C75.6921 28.68 77.0721 29.31 78.0322 30.57C79.0522 31.83 79.7721 33.42 80.1921 35.34C80.6721 37.2 80.9421 39.09 81.0021 41.01C81.1222 42.87 81.1822 44.43 81.1822 45.69C81.1822 48.81 80.7622 52.08 79.9222 55.5C79.1421 58.92 77.8521 61.83 76.0521 64.23H76.6821C78.8422 64.23 80.9722 63.24 83.0722 61.26C85.2321 59.22 87.0621 56.16 88.5621 52.08C88.8021 51.48 89.0721 51.18 89.3721 51.18C89.7921 51.18 90.0021 51.51 90.0021 52.17C90.0021 52.41 89.9721 52.59 89.9122 52.71C88.2921 57.39 86.2821 60.78 83.8822 62.88C81.5422 64.98 79.2321 66.03 76.9521 66.03C76.5921 66.03 76.2321 66 75.8721 65.94C75.5121 65.82 75.1521 65.73 74.7921 65.67C73.8321 66.69 72.7221 67.5 71.4621 68.1C70.2021 68.7 68.7921 69 67.2321 69C65.4921 69 64.1721 68.64 63.2721 67.92V71.88C63.2721 73.74 63.2721 75.42 63.2721 76.92C63.2721 78.48 63.2421 79.74 63.1821 80.7C63.0021 84.48 62.6721 87.57 62.1921 89.97C61.5921 92.91 60.6921 95.31 59.4921 97.17C58.2921 99.03 56.6721 99.96 54.6321 99.96H54.3621ZM65.8821 66.57C66.8421 66.57 67.7121 66.27 68.4921 65.67C69.8721 64.59 70.9821 62.85 71.8221 60.45C72.7221 57.99 73.3521 55.56 73.7121 53.16C73.8921 52.14 74.0121 50.91 74.0721 49.47C74.1921 48.03 74.2521 46.56 74.2521 45.06C74.2521 42.48 74.0421 40.17 73.6221 38.13C73.2021 36.03 72.3921 34.98 71.1921 34.98C70.4721 34.98 69.7221 35.61 68.9421 36.87C68.2221 38.13 67.5021 39.78 66.7821 41.82C66.0621 43.86 65.3721 46.05 64.7121 48.39C64.1121 50.67 63.5721 52.86 63.0921 54.96C63.1521 56.7 63.1821 58.44 63.1821 60.18C63.1821 61.92 63.1821 63.66 63.1821 65.4C63.9621 66.18 64.8621 66.57 65.8821 66.57ZM54.0021 97.08C54.3621 97.08 54.7221 96.81 55.0821 96.27C55.5021 95.79 55.8621 94.98 56.1621 93.84C56.5821 92.28 56.8521 90.27 56.9721 87.81C57.1521 85.35 57.2421 82.77 57.2421 80.07C57.2421 77.13 57.1821 74.25 57.0621 71.43C56.9421 68.67 56.8221 66.36 56.7021 64.5C56.1621 65.76 55.5621 67.26 54.9021 69C54.2421 70.74 53.6721 72.57 53.1921 74.49C52.5921 76.65 52.1121 78.84 51.7521 81.06C51.3321 83.34 51.1221 85.62 51.1221 87.9C51.1221 89.82 51.3021 91.74 51.6621 93.66C51.8421 94.5 52.1721 95.28 52.6521 96C53.0721 96.72 53.5221 97.08 54.0021 97.08ZM101.161 70.71C98.2207 70.71 95.7007 70.02 93.6007 68.64C91.5607 67.26 89.9707 65.43 88.8307 63.15C87.7507 60.81 87.1507 58.29 87.0307 55.59V53.79C87.0307 50.91 87.3307 48.03 87.9307 45.15C88.5907 42.27 89.5807 39.63 90.9007 37.23C92.2207 34.83 93.9007 32.91 95.9407 31.47C97.9807 29.97 100.411 29.22 103.231 29.22H103.861C105.541 29.28 106.741 29.91 107.461 31.11C108.241 32.31 108.631 33.6 108.631 34.98V35.34C108.631 38.58 107.881 41.4 106.381 43.8C104.941 46.14 103.111 48.03 100.891 49.47C98.6707 50.91 96.3607 51.9 93.9607 52.44V52.89C93.9607 54.39 94.0807 56.01 94.3207 57.75C94.5607 59.43 95.0107 61.05 95.6707 62.61C96.3307 64.17 97.2607 65.46 98.4607 66.48C99.6607 67.44 101.191 67.92 103.051 67.92C105.331 67.92 107.251 67.2 108.811 65.76C110.371 64.32 111.571 62.61 112.411 60.63C112.771 59.79 113.071 58.86 113.311 57.84C113.611 56.76 113.881 55.62 114.121 54.42C114.241 53.7 114.481 53.34 114.841 53.34C115.321 53.34 115.561 53.85 115.561 54.87C115.561 55.05 115.531 55.26 115.471 55.5C115.471 55.68 115.441 55.92 115.381 56.22C115.021 58.32 114.511 60.18 113.851 61.8C112.651 64.92 111.061 67.2 109.081 68.64C107.161 70.02 104.521 70.71 101.161 70.71ZM94.0507 50.46C95.9107 49.92 97.5307 48.96 98.9107 47.58C100.351 46.14 101.491 44.46 102.331 42.54C103.171 40.62 103.621 38.67 103.681 36.69V36.15C103.681 35.13 103.501 34.14 103.141 33.18C102.781 32.22 102.181 31.74 101.341 31.74H101.251C100.171 31.74 99.2107 32.28 98.3707 33.36C97.5907 34.38 96.9307 35.7 96.3907 37.32C95.8507 38.94 95.4007 40.62 95.0407 42.36C94.6807 44.1 94.4107 45.69 94.2307 47.13C94.1107 48.57 94.0507 49.62 94.0507 50.28V50.46ZM124.721 69.9C121.421 69.9 118.991 68.94 117.431 67.02C115.931 65.04 114.971 62.37 114.551 59.01C114.131 55.65 113.921 51.87 113.921 47.67C113.921 45.93 113.951 44.07 114.011 42.09C114.071 40.11 114.161 38.25 114.281 36.51C114.461 34.77 114.611 33.45 114.731 32.55H111.941C111.461 32.55 111.221 32.25 111.221 31.65C111.221 31.35 111.341 31.05 111.581 30.75C111.761 30.39 112.001 30.21 112.301 30.21H114.911C115.151 27.39 115.421 24.84 115.721 22.56C116.021 20.28 116.381 18.66 116.801 17.7C117.101 17.04 117.581 16.47 118.241 15.99C118.961 15.45 119.921 15.18 121.121 15.18C121.481 15.18 121.871 15.21 122.291 15.27C122.771 15.33 123.221 15.42 123.641 15.54C123.341 16.56 122.981 18.42 122.561 21.12C122.201 23.76 121.871 26.79 121.571 30.21H128.771C129.311 30.21 129.581 30.54 129.581 31.2C129.581 31.5 129.491 31.8 129.311 32.1C129.131 32.4 128.861 32.55 128.501 32.55H121.301C121.121 34.59 120.941 36.72 120.761 38.94C120.581 41.16 120.461 43.32 120.401 45.42C120.401 46.02 120.371 46.68 120.311 47.4C120.311 48.06 120.311 48.78 120.311 49.56C120.311 51.3 120.371 53.16 120.491 55.14C120.611 57.12 120.881 58.98 121.301 60.72C121.721 62.46 122.321 63.87 123.101 64.95C123.881 66.03 124.901 66.57 126.161 66.57C126.761 66.57 127.361 66.45 127.961 66.21C128.561 65.91 129.071 65.55 129.491 65.13C130.691 63.99 131.591 62.46 132.191 60.54C132.851 58.62 133.421 56.67 133.901 54.69C134.081 53.85 134.381 53.43 134.801 53.43C135.101 53.43 135.251 53.79 135.251 54.51C135.251 54.69 135.221 54.9 135.161 55.14C135.161 55.38 135.131 55.65 135.071 55.95C134.711 57.99 134.141 60.09 133.361 62.25C132.641 64.41 131.591 66.24 130.211 67.74C128.891 69.18 127.061 69.9 124.721 69.9ZM137.386 102.12C134.086 102.12 131.746 101.28 130.366 99.6C128.926 97.98 128.206 95.94 128.206 93.48C128.206 91.62 128.536 89.64 129.196 87.54C129.856 85.44 130.696 83.4 131.716 81.42C133.156 78.72 134.986 76.23 137.206 73.95C139.486 71.67 141.826 69.66 144.226 67.92C146.626 66.12 148.696 64.68 150.436 63.6C150.436 62.82 150.406 61.56 150.346 59.82C150.286 58.02 150.196 56.01 150.076 53.79C150.016 51.51 149.896 49.32 149.716 47.22C149.236 49.86 148.546 52.47 147.646 55.05C146.806 57.63 145.786 60.27 144.586 62.97C144.286 63.63 143.806 64.47 143.146 65.49C142.486 66.51 141.736 67.41 140.896 68.19C140.056 68.91 139.156 69.27 138.196 69.27C137.476 69.27 136.786 68.97 136.126 68.37C135.526 67.83 135.016 66.9 134.596 65.58C134.236 64.2 133.936 62.64 133.696 60.9C133.516 59.16 133.366 57.39 133.246 55.59C133.186 53.79 133.156 52.17 133.156 50.73C133.156 50.07 133.156 49.5 133.156 49.02C133.216 48.48 133.246 48.03 133.246 47.67C133.306 46.41 133.366 44.91 133.426 43.17C133.546 41.43 133.726 39.69 133.966 37.95C134.206 36.15 134.566 34.62 135.046 33.36C135.946 31.08 137.716 29.94 140.356 29.94C140.656 29.94 140.926 29.94 141.166 29.94C141.466 29.94 141.736 29.97 141.976 30.03C142.156 30.09 142.306 30.15 142.426 30.21C142.606 30.21 142.696 30.3 142.696 30.48C142.696 30.6 142.666 30.69 142.606 30.75C142.006 32.19 141.496 34.08 141.076 36.42C140.656 38.7 140.326 41.16 140.086 43.8C139.846 46.44 139.726 48.96 139.726 51.36C139.726 52.56 139.756 53.73 139.816 54.87C139.876 55.95 139.966 56.91 140.086 57.75C140.266 58.77 140.506 59.7 140.806 60.54C141.106 61.38 141.496 61.8 141.976 61.8C142.336 61.8 142.786 61.44 143.326 60.72C144.526 59.04 145.516 57.06 146.296 54.78C147.136 52.44 147.766 50.04 148.186 47.58C148.666 45.12 148.966 42.84 149.086 40.74C149.146 39.42 149.206 38.04 149.266 36.6C149.326 35.16 149.686 33.87 150.346 32.73C151.126 31.35 152.086 30.51 153.226 30.21C154.426 29.91 155.446 29.76 156.286 29.76H157.366C158.266 29.76 158.716 29.94 158.716 30.3C158.716 30.42 158.596 30.6 158.356 30.84C157.756 31.38 157.276 32.43 156.916 33.99C156.616 35.55 156.406 37.41 156.286 39.57C156.166 41.67 156.106 43.86 156.106 46.14C156.106 48.72 156.136 51.21 156.196 53.61C156.256 55.95 156.286 57.78 156.286 59.1V60.09C158.026 59.07 159.526 58.26 160.786 57.66C162.106 57 163.096 56.67 163.756 56.67C163.876 56.67 163.966 56.7 164.026 56.76C164.086 56.76 164.146 56.76 164.206 56.76C164.506 56.82 164.656 57.06 164.656 57.48C164.656 57.66 164.596 57.87 164.476 58.11C164.356 58.29 164.176 58.38 163.936 58.38C163.216 58.44 162.226 58.83 160.966 59.55C159.766 60.21 158.656 60.99 157.636 61.89C156.616 62.73 156.106 63.48 156.106 64.14V65.22C156.106 73.56 155.236 80.46 153.496 85.92C151.816 91.38 149.536 95.43 146.656 98.07C143.836 100.77 140.746 102.12 137.386 102.12ZM136.396 100.23H136.666C138.766 100.23 140.536 99.54 141.976 98.16C143.476 96.78 144.706 94.95 145.666 92.67C146.686 90.45 147.496 88.02 148.096 85.38C148.756 82.74 149.236 80.1 149.536 77.46C149.896 74.88 150.136 72.54 150.256 70.44C150.376 68.4 150.466 66.87 150.526 65.85C149.566 66.39 148.096 67.5 146.116 69.18C144.136 70.86 142.066 72.93 139.906 75.39C137.806 77.91 136.036 80.76 134.596 83.94C133.816 85.68 133.216 87.36 132.796 88.98C132.436 90.66 132.256 92.19 132.256 93.57C132.256 95.55 132.616 97.14 133.336 98.34C134.056 99.6 135.076 100.23 136.396 100.23ZM212.811 73.77C211.011 73.77 209.511 73.11 208.311 71.79C207.171 70.47 206.271 68.7 205.611 66.48C205.011 64.26 204.561 61.8 204.261 59.1C204.021 56.34 203.901 53.55 203.901 50.73C203.901 49.53 203.901 48.39 203.901 47.31C203.961 46.17 204.021 45.03 204.081 43.89C203.781 43.95 203.451 43.98 203.091 43.98C202.791 43.98 202.491 43.98 202.191 43.98C200.391 43.98 198.951 43.8 197.871 43.44C197.331 43.26 196.821 42.81 196.341 42.09C195.921 41.37 195.561 40.59 195.261 39.75C195.021 38.91 194.901 38.28 194.901 37.86C194.901 37.56 194.961 37.41 195.081 37.41H195.171C196.611 37.83 198.051 38.16 199.491 38.4C200.931 38.64 202.371 38.76 203.811 38.76H204.441C204.561 37.26 204.681 35.94 204.801 34.8C204.921 33.6 205.011 32.61 205.071 31.83C205.431 28.11 205.851 24.6 206.331 21.3C206.871 17.94 207.441 14.97 208.041 12.39C205.881 12.09 203.691 11.85 201.471 11.67C199.311 11.43 197.091 11.31 194.811 11.31C193.071 11.31 191.271 11.4 189.411 11.58C187.611 11.7 185.781 11.97 183.921 12.39C180.261 13.17 177.171 14.37 174.651 15.99C172.131 17.61 170.241 19.38 168.981 21.3C167.721 23.22 167.091 25.08 167.091 26.88C167.091 28.74 167.841 30.36 169.341 31.74C170.901 33.06 173.241 33.72 176.361 33.72C176.841 33.72 177.321 33.72 177.801 33.72C178.281 33.66 178.791 33.6 179.331 33.54C180.951 33.3 182.901 32.79 185.181 32.01C187.461 31.23 189.801 30.27 192.201 29.13C194.661 27.93 196.851 26.64 198.771 25.26C198.951 25.08 199.311 24.99 199.851 24.99C200.091 24.99 200.211 25.08 200.211 25.26C200.211 25.44 200.061 25.74 199.761 26.16C199.521 26.52 199.041 27.06 198.321 27.78C195.321 30.72 191.811 32.88 187.791 34.26C183.831 35.58 179.931 36.24 176.091 36.24C175.491 36.24 174.891 36.24 174.291 36.24C173.751 36.18 173.211 36.12 172.671 36.06C169.371 35.7 166.791 34.44 164.931 32.28C163.131 30.12 162.231 27.63 162.231 24.81C162.231 22.71 162.801 20.58 163.941 18.42C165.081 16.2 166.821 14.19 169.161 12.39C171.561 10.53 174.651 9.06 178.431 7.98C182.211 6.84 186.741 6.27 192.021 6.27C194.541 6.27 197.271 6.48 200.211 6.89999C203.151 7.32 206.151 7.83 209.211 8.43C209.271 8.31 209.301 8.19 209.301 8.07C209.361 7.89 209.421 7.74 209.481 7.62C209.541 7.44 209.661 7.34999 209.841 7.34999C210.081 7.29 210.291 7.26 210.471 7.26C211.971 7.26 213.261 7.47 214.341 7.89C215.481 8.25 216.051 8.85 216.051 9.69C218.691 10.11 221.241 10.5 223.701 10.86C226.221 11.16 228.591 11.31 230.811 11.31C232.911 11.31 234.801 11.13 236.481 10.77C237.501 10.53 238.281 10.11 238.821 9.51C239.361 8.85 239.631 8.22 239.631 7.62C239.631 6.78 239.241 6.15 238.461 5.73C238.401 5.67 238.371 5.58 238.371 5.46C238.371 5.16 238.491 5.01 238.731 5.01C239.871 5.01 240.831 5.46 241.611 6.36C242.451 7.26 242.871 8.31 242.871 9.51C242.871 10.65 242.331 11.76 241.251 12.84C240.231 13.92 238.431 14.61 235.851 14.91C234.231 15.09 232.581 15.18 230.901 15.18C228.321 15.18 225.711 15.03 223.071 14.73C220.491 14.37 217.881 13.98 215.241 13.56C214.641 16.32 213.921 20.01 213.081 24.63C212.301 29.19 211.581 33.96 210.921 38.94C214.161 38.88 217.341 38.67 220.461 38.31C223.641 37.89 226.341 37.26 228.561 36.42C228.861 36.24 229.071 36.15 229.191 36.15C229.611 36.15 229.851 36.33 229.911 36.69V36.87C229.911 37.23 229.701 37.53 229.281 37.77C228.861 38.01 228.591 38.19 228.471 38.31C227.391 38.79 225.861 39.33 223.881 39.93C221.961 40.53 219.831 41.13 217.491 41.73C215.151 42.27 212.781 42.75 210.381 43.17C210.261 44.85 210.141 46.47 210.021 48.03C209.901 49.59 209.811 51.15 209.751 52.71C209.751 53.31 209.721 53.94 209.661 54.6C209.661 55.26 209.661 55.95 209.661 56.67C209.661 58.71 209.751 60.78 209.931 62.88C210.171 64.92 210.591 66.63 211.191 68.01C211.791 69.39 212.691 70.08 213.891 70.08C214.491 70.08 215.031 69.9 215.511 69.54C215.991 69.18 216.321 68.79 216.501 68.37C216.681 67.89 216.891 67.65 217.131 67.65C217.491 67.65 217.671 67.95 217.671 68.55V68.73C217.671 70.17 217.221 71.37 216.321 72.33C215.481 73.29 214.311 73.77 212.811 73.77ZM256.022 69.45C254.162 69.45 252.662 68.88 251.522 67.74C250.382 66.54 249.482 65.04 248.822 63.24C248.222 61.38 247.802 59.52 247.562 57.66C247.322 55.74 247.202 54.06 247.202 52.62C246.482 55.32 245.552 57.96 244.412 60.54C243.332 63.12 242.132 65.25 240.812 66.93C239.492 68.55 238.052 69.36 236.492 69.36H236.402C234.962 69.36 233.762 68.7 232.802 67.38C231.842 66 231.122 64.2 230.642 61.98C230.162 59.76 229.922 57.36 229.922 54.78V53.88C229.922 51.48 230.132 48.84 230.552 45.96C230.972 43.02 231.722 40.23 232.802 37.59C233.882 34.95 235.352 32.79 237.212 31.11C239.132 29.37 241.562 28.5 244.502 28.5C245.642 28.5 246.662 28.77 247.562 29.31C248.522 29.79 249.212 30.51 249.632 31.47C250.052 30.99 250.622 30.6 251.342 30.3C252.062 30 252.932 29.85 253.952 29.85C254.312 29.85 254.702 29.88 255.122 29.94C255.602 30 256.082 30.09 256.562 30.21C256.202 31.59 255.782 33.48 255.302 35.88C254.822 38.28 254.402 40.92 254.042 43.8C253.742 46.62 253.592 49.38 253.592 52.08V52.44C253.592 53.58 253.652 54.93 253.772 56.49C253.892 58.05 254.102 59.58 254.402 61.08C254.702 62.58 255.122 63.84 255.662 64.86C256.202 65.88 256.892 66.39 257.732 66.39H257.822C258.302 66.39 258.812 66.15 259.352 65.67C259.952 65.19 260.582 64.29 261.242 62.97C262.142 61.23 262.982 58.98 263.762 56.22C263.882 55.68 264.122 55.41 264.482 55.41C264.782 55.41 264.932 55.77 264.932 56.49V56.85C264.812 58.41 264.392 60.18 263.672 62.16C262.952 64.14 261.932 65.85 260.612 67.29C259.352 68.73 257.822 69.45 256.022 69.45ZM239.552 61.98C240.512 61.98 241.382 61.29 242.162 59.91C243.002 58.53 243.752 56.85 244.412 54.87C245.072 52.89 245.642 50.97 246.122 49.11C246.842 46.35 247.322 43.56 247.562 40.74C247.802 37.86 248.312 35.04 249.092 32.28C248.372 31.5 247.562 31.11 246.662 31.11C245.342 31.11 243.992 31.77 242.612 33.09C241.232 34.41 240.152 35.91 239.372 37.59C238.412 39.69 237.692 42.15 237.212 44.97C236.792 47.79 236.582 50.49 236.582 53.07C236.582 53.73 236.582 54.39 236.582 55.05C236.642 55.71 236.702 56.34 236.762 56.94C236.882 58.74 237.212 60.03 237.752 60.81C238.352 61.59 238.952 61.98 239.552 61.98ZM272.952 69.36C270.792 69.36 269.082 68.67 267.822 67.29C266.562 65.91 265.632 64.26 265.032 62.34C264.432 60.36 264.072 58.53 263.952 56.85C263.832 55.23 263.742 53.52 263.682 51.72C263.622 49.86 263.592 47.91 263.592 45.87C263.592 42.15 263.682 38.31 263.862 34.35C264.102 30.39 264.432 26.55 264.852 22.83C265.332 19.05 265.902 15.69 266.562 12.75C266.922 11.25 267.492 9.54 268.272 7.62C269.052 5.7 270.072 4.05 271.332 2.67C272.592 1.23 274.092 0.509997 275.832 0.509997C279.372 0.509997 281.142 3.18 281.142 8.52C281.142 10.62 280.782 13.65 280.062 17.61C279.402 21.51 278.172 25.89 276.372 30.75C275.472 33.27 274.392 35.82 273.132 38.4C271.932 40.92 270.732 43.23 269.532 45.33C269.472 45.81 269.442 46.32 269.442 46.86C269.442 47.34 269.442 47.82 269.442 48.3C269.442 50.34 269.502 52.41 269.622 54.51C269.802 56.61 270.072 58.56 270.432 60.36C270.852 62.1 271.422 63.51 272.142 64.59C272.862 65.67 273.792 66.21 274.932 66.21C276.252 66.21 277.302 65.67 278.082 64.59C278.922 63.45 279.552 62.37 279.972 61.35C280.212 60.81 280.422 60.21 280.602 59.55C280.842 58.89 281.082 58.2 281.322 57.48C281.562 56.82 281.892 56.49 282.312 56.49C282.612 56.49 282.762 56.82 282.762 57.48V57.66C282.762 58.08 282.672 58.62 282.492 59.28C282.372 59.94 282.192 60.6 281.952 61.26C281.232 63.48 280.182 65.4 278.802 67.02C277.422 68.58 275.472 69.36 272.952 69.36ZM269.622 41.46C271.182 38.28 272.622 34.92 273.942 31.38C275.262 27.78 276.312 24.24 277.092 20.76C277.932 17.28 278.352 14.13 278.352 11.31C278.352 9.57 278.202 8.13 277.902 6.99C277.662 5.85 277.182 5.28 276.462 5.28C275.802 5.28 275.172 5.97 274.572 7.34999C274.032 8.67 273.522 10.44 273.042 12.66C272.562 14.88 272.112 17.28 271.692 19.86C271.332 22.38 271.002 24.9 270.702 27.42C270.462 29.88 270.252 32.07 270.072 33.99C269.952 35.85 269.862 37.2 269.802 38.04C269.802 38.4 269.772 38.88 269.712 39.48C269.712 40.02 269.682 40.68 269.622 41.46ZM293.49 70.71C290.73 70.71 288.51 70.05 286.83 68.73C285.21 67.35 284.01 65.61 283.23 63.51C282.51 61.35 282.06 59.07 281.88 56.67C281.82 56.25 281.79 55.83 281.79 55.41C281.79 54.93 281.79 54.48 281.79 54.06C281.79 51.6 282.03 48.96 282.51 46.14C283.05 43.32 283.92 40.68 285.12 38.22C286.32 35.7 287.91 33.66 289.89 32.1C291.87 30.54 294.3 29.76 297.18 29.76C298.92 29.76 300.33 30.45 301.41 31.83C302.55 33.15 303.12 34.68 303.12 36.42C303.12 38.28 302.82 39.66 302.22 40.56C301.62 41.4 300.9 41.82 300.06 41.82C298.62 41.82 297.9 40.29 297.9 37.23C297.9 36.03 297.72 34.92 297.36 33.9C297 32.88 296.31 32.37 295.29 32.37C294.15 32.37 293.19 32.94 292.41 34.08C291.69 35.16 291.09 36.57 290.61 38.31C290.13 39.99 289.74 41.79 289.44 43.71C289.2 45.57 289.02 47.34 288.9 49.02C288.84 50.64 288.81 51.9 288.81 52.8V53.16C288.81 55.56 289.05 57.81 289.53 59.91C290.01 62.01 290.82 63.69 291.96 64.95C293.1 66.21 294.63 66.84 296.55 66.84C300.09 66.84 302.73 63.84 304.47 57.84C304.65 57.12 304.98 56.76 305.46 56.76C305.88 56.76 306.09 57.18 306.09 58.02C306.09 58.44 306 58.98 305.82 59.64C304.86 62.94 303.39 65.61 301.41 67.65C299.43 69.69 296.79 70.71 293.49 70.71Z" fill="white"/>
</svg>
