<svg width="193" height="155" viewBox="0 0 193 155" fill="none" xmlns="http://www.w3.org/2000/svg">
<path d="M169.212 94.4047C171.859 91.1027 174.239 87.5473 176.311 83.7378C181.19 74.7663 183.393 64.6537 182.444 54.436C181.268 41.7668 173.539 29.1893 160.748 25.5021C149.404 22.2306 139.495 28.6264 131.482 36.0419C125.492 41.5852 119.729 47.6331 112.252 51.1893C104.286 54.9769 93.913 54.9024 85.2741 54.1989C73.5922 53.249 62.3757 49.7739 50.7119 48.9912C38.7414 48.1874 25.1996 51.1664 16.7413 60.2335C6.72239 70.973 8.03175 87.5149 15.4415 99.3239C16.2358 100.59 17.1007 101.812 18.0335 102.98C26.8148 113.978 40.2629 120.665 53.7913 123.752C84.1616 130.682 118.624 129.719 146.172 113.877C154.938 108.834 162.878 102.311 169.212 94.4047Z" fill="#F6F5F5"/>
<path d="M168.361 104.539C171.583 101.521 174.569 98.2041 177.273 94.5771C183.642 86.0367 187.416 75.9212 187.951 65.2294C188.616 51.9724 182.499 37.8391 169.839 32.1343C158.61 27.0737 147.429 32.2088 138.055 38.6772C131.048 43.5132 124.2 48.9036 115.952 51.4669C107.165 54.1964 96.4648 52.5803 87.6491 50.5742C75.7273 47.8599 64.6599 42.6091 52.7324 40.0707C40.4913 37.4654 26.0655 38.5339 15.9864 46.6414C4.0483 56.2446 2.94729 73.5204 8.84703 86.8137C9.47973 88.2387 10.1918 89.6283 10.9812 90.973C18.4177 103.633 31.3125 112.532 44.8237 117.726C75.1567 129.387 110.886 133.503 141.681 121.229C151.482 117.322 160.647 111.762 168.361 104.539Z" stroke="#F6F5F5" stroke-width="10" stroke-miterlimit="10"/>
<g opacity="0.6">
<g opacity="0.6">
<g opacity="0.6">
<g opacity="0.6">
<path opacity="0.6" d="M56.4993 76.1561C56.4993 76.1561 56.7869 76.1551 57.1482 76.1532C57.3546 76.1523 57.6137 76.1513 57.7312 76.1504C57.8191 76.1504 57.8707 76.1494 57.8707 76.1494C57.8707 76.1494 57.8373 76.546 57.8488 77.0803C57.8593 77.3641 57.9204 77.7254 58.125 78.0093C58.1909 78.1928 58.2721 78.3591 58.3706 78.5005C58.4155 78.5655 58.3773 78.6659 58.3085 78.6764C58.0953 78.7079 57.908 78.7423 57.7417 78.7748C57.3814 78.9316 57.2514 79.0606 57.1587 78.7767C57.0975 78.6917 57.0431 78.5693 56.9848 78.3992C56.9475 78.2903 56.9121 78.1603 56.8787 78.016C56.7544 77.7474 56.657 77.3775 56.592 77.087C56.5327 76.5566 56.4993 76.1561 56.4993 76.1561Z" fill="#FBC343"/>
</g>
</g>
</g>
<g opacity="0.6">
<g opacity="0.6">
<g opacity="0.6">
<path opacity="0.6" d="M55.3582 65.3307C55.3582 65.3307 55.492 65.5849 55.6602 65.9051C55.7003 65.9825 55.7519 66.079 55.7749 66.123C55.8159 66.2004 55.8398 66.2473 55.8398 66.2473C55.8398 66.2473 56.1734 66.0303 56.6494 65.7875C56.7698 65.735 56.9447 65.7082 57.1549 65.8258C57.347 65.7971 57.5324 65.7895 57.7026 65.8105C57.7809 65.82 57.8517 65.7378 57.8287 65.6719C57.757 65.4683 57.6987 65.2867 57.649 65.1252C57.714 64.9169 57.802 64.8079 57.5334 64.9073C57.4292 64.893 57.2964 64.9035 57.1196 64.9331C57.0058 64.9522 56.8749 64.9819 56.7315 65.0211C56.5643 64.9704 56.3693 64.9656 56.2202 64.9723C55.7261 65.1711 55.3582 65.3307 55.3582 65.3307Z" fill="#9490E6"/>
</g>
</g>
</g>
<g opacity="0.6">
<g opacity="0.6">
<g opacity="0.6">
<path opacity="0.6" d="M16.1276 85.4392C16.1276 85.4392 16.398 85.5357 16.7383 85.6581C17.0527 85.7709 17.4494 85.9123 17.6281 85.9763C17.7103 86.006 17.76 86.0232 17.76 86.0232C17.76 86.0232 17.6013 86.3873 17.4407 86.8977C17.3098 87.3182 17.1875 87.8706 17.2391 88.358C17.242 88.5539 17.2649 88.7403 17.3127 88.9066C17.3347 88.9831 17.2659 89.0662 17.198 89.0519C16.9877 89.0089 16.8004 88.9773 16.6341 88.9515C16.033 88.9009 15.794 88.9515 15.7443 88.6323C15.7137 88.531 15.7023 88.3963 15.7023 88.2156C15.7023 88.1 15.7109 87.9643 15.7262 87.8161C15.7434 87.3774 15.8342 86.8021 15.9173 86.3519C16.0301 85.8292 16.1276 85.4392 16.1276 85.4392Z" fill="#8CBFBE"/>
</g>
</g>
</g>
<g opacity="0.6">
<g opacity="0.6">
<g opacity="0.6">
<path opacity="0.6" d="M9.77704 62.1426C9.77704 62.1426 9.60023 62.3691 9.37754 62.6539C9.20742 62.8718 8.99333 63.1451 8.8968 63.2694C8.84233 63.3382 8.81079 63.3793 8.81079 63.3793C8.81079 63.3793 9.1367 63.6068 9.54097 63.9566C9.79233 64.1792 10.0829 64.4994 10.2157 64.875C10.3161 65.0442 10.3954 65.2153 10.4432 65.3825C10.4652 65.4599 10.5665 65.4934 10.6171 65.4456C10.772 65.2975 10.9134 65.1703 11.0396 65.0604C11.4563 64.7785 11.6627 64.7231 11.5203 64.444C11.4926 64.3408 11.4314 64.2203 11.3358 64.0655C11.2747 63.9661 11.1963 63.8553 11.1055 63.7367C10.9373 63.4357 10.662 63.0801 10.4375 62.8087C10.0647 62.4245 9.77704 62.1426 9.77704 62.1426Z" fill="#708CD5"/>
</g>
</g>
</g>
<g opacity="0.6">
<g opacity="0.6">
<g opacity="0.6">
<path opacity="0.6" d="M34.3161 30.1987C34.3161 30.1987 34.5999 30.2465 34.9564 30.3067C35.117 30.3335 35.3186 30.3679 35.4094 30.3832C35.4964 30.3975 35.547 30.4061 35.547 30.4061C35.547 30.4061 35.4515 30.7922 35.3769 31.3217C35.3511 31.5473 35.3645 31.8416 35.5298 32.0997C35.5662 32.2918 35.6187 32.4705 35.6933 32.6263C35.7277 32.698 35.6732 32.7907 35.6044 32.7897C35.3893 32.7849 35.1991 32.7859 35.0309 32.7897C34.7261 32.8949 34.6047 33.0048 34.5779 32.7123C34.5311 32.6177 34.4967 32.4877 34.4671 32.3099C34.4479 32.1962 34.4336 32.0615 34.4241 31.9133C34.3361 31.6801 34.2874 31.3733 34.2606 31.1334C34.2845 30.5992 34.3161 30.1987 34.3161 30.1987Z" fill="#FBC343"/>
</g>
</g>
</g>
<g opacity="0.6">
<g opacity="0.6">
<g opacity="0.6">
<path opacity="0.6" d="M27.8745 39.3398C27.8745 39.3398 27.5907 39.3876 27.2342 39.4478C27.0736 39.4746 26.8719 39.509 26.7812 39.5243C26.6942 39.5386 26.6435 39.5472 26.6435 39.5472C26.6435 39.5472 26.7391 39.9334 26.8137 40.4628C26.8395 40.6884 26.8261 40.9828 26.6607 41.2408C26.6244 41.4329 26.5719 41.6116 26.4973 41.7674C26.4629 41.8391 26.5174 41.9318 26.5862 41.9308C26.8012 41.9261 26.9914 41.927 27.1596 41.9308C27.4645 42.036 27.5859 42.1459 27.6126 41.8534C27.6595 41.7588 27.6939 41.6288 27.7235 41.4511C27.7426 41.3373 27.757 41.2026 27.7665 41.0544C27.8544 40.8212 27.9032 40.5144 27.9299 40.2746C27.9051 39.7403 27.8745 39.3398 27.8745 39.3398Z" fill="#FBC343"/>
</g>
</g>
</g>
<g opacity="0.6">
<g opacity="0.6">
<g opacity="0.6">
<path opacity="0.6" d="M70.4765 23.5337C70.4765 23.5337 70.1936 23.5843 69.8381 23.6484C69.754 23.6637 69.6479 23.6828 69.6001 23.6914C69.5141 23.7067 69.4625 23.7162 69.4625 23.7162C69.4625 23.7162 69.5628 24.1004 69.6422 24.6299C69.6536 24.758 69.623 24.9281 69.4443 25.0906C69.4109 25.2827 69.3593 25.4624 69.2866 25.6191C69.2532 25.6908 69.3086 25.7835 69.3774 25.7816C69.5925 25.7739 69.7827 25.773 69.9509 25.7749C70.1239 25.901 70.1984 26.0176 70.1888 25.7309C70.2347 25.6363 70.2672 25.5054 70.2949 25.3276C70.3131 25.2139 70.3255 25.0791 70.3341 24.93C70.4345 24.7886 70.5023 24.6079 70.5434 24.4674C70.5128 23.9341 70.4765 23.5337 70.4765 23.5337Z" fill="#FBC343"/>
</g>
</g>
</g>
<g opacity="0.6">
<g opacity="0.6">
<g opacity="0.6">
<path opacity="0.6" d="M93.3109 23.4746C93.3109 23.4746 93.5986 23.4832 93.9599 23.4937C94.0612 23.4966 94.1892 23.5004 94.2466 23.5023C94.3345 23.5052 94.3861 23.5061 94.3861 23.5061C94.3861 23.5061 94.3402 23.9009 94.3345 24.4361C94.3402 24.5861 94.3938 24.7782 94.5926 24.934C94.6528 25.1194 94.7283 25.2895 94.8219 25.4329C94.8649 25.4989 94.8229 25.5992 94.7541 25.6068C94.54 25.6307 94.3517 25.6585 94.1845 25.6852C94.0019 25.8343 93.935 25.9605 93.8977 25.6757C93.8385 25.5887 93.7888 25.4644 93.7362 25.2924C93.7028 25.1825 93.6712 25.0506 93.6425 24.9053C93.524 24.7591 93.4332 24.5622 93.373 24.4064C93.331 23.8751 93.3109 23.4746 93.3109 23.4746Z" fill="#EE6F57"/>
</g>
</g>
</g>
<g opacity="0.6">
<g opacity="0.6">
<g opacity="0.6">
<path opacity="0.6" d="M78.4519 34.6403C78.4519 34.6403 78.5054 34.3583 78.5733 34.0028C78.5972 33.8747 78.6278 33.7142 78.6421 33.6406C78.6583 33.5545 78.6679 33.5029 78.6679 33.5029C78.6679 33.5029 79.0512 33.6109 79.5778 33.7008C79.7632 33.7256 80.0069 33.7122 80.2286 33.5479C80.4207 33.5182 80.6004 33.4704 80.7581 33.3997C80.8298 33.3672 80.9225 33.4246 80.9187 33.4943C80.9091 33.7094 80.9062 33.9005 80.9072 34.0687C81.0161 34.322 81.127 34.4262 80.8374 34.43C80.7418 34.474 80.6119 34.5036 80.4331 34.5284C80.3194 34.5447 80.1846 34.5542 80.0365 34.56C79.8396 34.6479 79.5825 34.6976 79.3828 34.7244C78.8514 34.6833 78.4519 34.6403 78.4519 34.6403Z" fill="#8CBFBE"/>
</g>
</g>
</g>
<g opacity="0.6">
<g opacity="0.6">
<g opacity="0.6">
<path opacity="0.6" d="M47.7133 41.8008C47.7133 41.8008 47.4352 41.7292 47.0854 41.6384C46.9009 41.5906 46.6677 41.5304 46.5626 41.5026C46.4775 41.4807 46.4269 41.4673 46.4269 41.4673C46.4269 41.4673 46.3552 41.8582 46.2032 42.3705C46.1248 42.6189 45.9786 42.9248 45.712 43.1255C45.6001 43.286 45.4778 43.4275 45.345 43.5384C45.2838 43.59 45.2953 43.697 45.3593 43.7238C45.5571 43.8069 45.7301 43.8862 45.8821 43.9579C46.165 44.1911 46.2472 44.345 46.4049 44.0927C46.4871 44.0258 46.5712 43.9207 46.6725 43.7716C46.7375 43.676 46.8053 43.5584 46.876 43.4275C47.0615 43.2201 47.245 42.9171 47.3778 42.6753C47.5756 42.1793 47.7133 41.8008 47.7133 41.8008Z" fill="#8CBFBE"/>
</g>
</g>
</g>
<g opacity="0.6">
<g opacity="0.6">
<g opacity="0.6">
<path opacity="0.6" d="M113.933 29.6248C113.933 29.6248 113.838 29.8953 113.716 30.2365C113.638 30.4592 113.538 30.7392 113.493 30.8654C113.464 30.9485 113.447 30.9973 113.447 30.9973C113.447 30.9973 113.087 30.8243 112.585 30.6427C112.329 30.5557 111.987 30.4898 111.666 30.5844C111.473 30.5806 111.29 30.5968 111.124 30.6398C111.049 30.6589 110.967 30.5863 110.981 30.5184C111.024 30.3063 111.055 30.118 111.081 29.9507C111.074 29.5054 111.005 29.32 111.305 29.3219C111.405 29.2941 111.538 29.2875 111.716 29.2941C111.83 29.298 111.963 29.3114 112.11 29.3324C112.391 29.3075 112.751 29.3419 113.032 29.3792C113.549 29.5121 113.933 29.6248 113.933 29.6248Z" fill="#FBC343"/>
</g>
</g>
</g>
<g opacity="0.6">
<g opacity="0.6">
<g opacity="0.6">
<path opacity="0.6" d="M72.2298 51.4097C72.2298 51.4097 72.1343 51.6802 72.0129 52.0214C71.9345 52.2441 71.8351 52.5241 71.7902 52.6503C71.7606 52.7334 71.7434 52.7822 71.7434 52.7822C71.7434 52.7822 71.384 52.6092 70.8813 52.4276C70.6261 52.3406 70.284 52.2747 69.9628 52.3693C69.7698 52.3655 69.5863 52.3817 69.4209 52.4247C69.3454 52.4438 69.2642 52.3712 69.2776 52.3033C69.3206 52.0912 69.3521 51.9029 69.3779 51.7347C69.3712 51.2893 69.3015 51.1039 69.6016 51.1058C69.7019 51.0781 69.8348 51.0714 70.0125 51.0781C70.1272 51.0819 70.2601 51.0953 70.4063 51.1163C70.6873 51.0915 71.0476 51.1259 71.3286 51.1631C71.8456 51.2969 72.2298 51.4097 72.2298 51.4097Z" fill="#EE6F57"/>
</g>
</g>
</g>
<g opacity="0.6">
<g opacity="0.6">
<g opacity="0.6">
<path opacity="0.6" d="M137.832 45.3294C137.832 45.3294 137.737 45.5999 137.615 45.9411C137.537 46.1638 137.437 46.4438 137.392 46.5699C137.363 46.6531 137.346 46.7018 137.346 46.7018C137.346 46.7018 136.986 46.5288 136.484 46.3473C136.228 46.2603 135.886 46.1943 135.565 46.289C135.372 46.2851 135.189 46.3014 135.023 46.3444C134.948 46.3635 134.866 46.2909 134.88 46.223C134.923 46.0108 134.954 45.8226 134.98 45.6543C134.974 45.209 134.904 45.0236 135.204 45.0255C135.304 44.9978 135.437 44.9911 135.615 44.9978C135.73 45.0016 135.862 45.015 136.009 45.036C136.29 45.0111 136.65 45.0455 136.931 45.0828C137.447 45.2166 137.832 45.3294 137.832 45.3294Z" fill="#EE6F57"/>
</g>
</g>
</g>
<g opacity="0.6">
<g opacity="0.6">
<g opacity="0.6">
<path opacity="0.6" d="M103.22 49.7375C103.22 49.7375 103.445 49.5578 103.727 49.3313C103.916 49.1793 104.154 48.9891 104.262 48.9021C104.331 48.8477 104.371 48.8142 104.371 48.8142C104.371 48.8142 104.581 49.1535 104.909 49.5759C105.101 49.8158 105.381 50.092 105.724 50.2124C105.885 50.3185 106.048 50.4026 106.21 50.4543C106.284 50.4781 106.314 50.5833 106.266 50.6339C106.118 50.7916 105.992 50.9359 105.881 51.065C105.642 51.4549 105.6 51.6537 105.346 51.4931C105.246 51.4635 105.132 51.3985 104.984 51.2972C104.891 51.2332 104.785 51.15 104.673 51.0544C104.402 50.8977 104.087 50.6378 103.848 50.4256C103.484 50.0385 103.22 49.7375 103.22 49.7375Z" fill="#D3D3D3"/>
</g>
</g>
</g>
<g opacity="0.6">
<g opacity="0.6">
<g opacity="0.6">
<path opacity="0.6" d="M102.849 24.7693C102.849 24.7693 102.563 24.7894 102.202 24.8142C102.063 24.8238 101.888 24.8362 101.808 24.8419C101.72 24.8477 101.668 24.8515 101.668 24.8515C101.668 24.8515 101.728 25.2443 101.754 25.7785C101.757 25.9773 101.715 26.2335 101.525 26.4466C101.471 26.6339 101.402 26.8069 101.314 26.9541C101.272 27.022 101.318 27.1204 101.387 27.1252C101.602 27.1414 101.791 27.1615 101.959 27.1816C102.213 27.3192 102.309 27.4406 102.352 27.1538C102.408 27.064 102.454 26.9388 102.5 26.7649C102.529 26.653 102.556 26.5211 102.579 26.374C102.69 26.1771 102.769 25.9133 102.819 25.7059C102.844 25.1717 102.849 24.7693 102.849 24.7693Z" fill="#9490E6"/>
</g>
</g>
</g>
<g opacity="0.6">
<g opacity="0.6">
<g opacity="0.6">
<path opacity="0.6" d="M92.3561 10.9841C92.3561 10.9841 92.6113 10.7366 92.9324 10.425C92.9467 10.4107 92.9658 10.3925 92.9744 10.3849C93.0499 10.3113 93.0958 10.2664 93.0958 10.2664C93.0958 10.2664 93.416 10.6649 93.8977 11.1542C93.9235 11.1647 93.999 11.137 94.1968 10.9803C94.4157 11.0931 94.6355 11.18 94.8477 11.2269C94.9452 11.2489 94.9996 11.376 94.948 11.4448C94.7856 11.657 94.6489 11.85 94.5323 12.0201L94.4893 12.0603C94.3593 12.0335 94.2035 11.9657 94.0018 11.8567C93.8728 11.7869 93.7266 11.6952 93.5699 11.59C93.4437 11.678 93.3357 11.7372 93.2612 11.7736C92.7384 11.3301 92.3561 10.9841 92.3561 10.9841Z" fill="#FBC343"/>
</g>
</g>
</g>
<g opacity="0.6">
<g opacity="0.6">
<g opacity="0.6">
<path opacity="0.6" d="M114.619 17.6554C114.619 17.6554 114.473 17.903 114.288 18.2136C114.2 18.3627 114.088 18.551 114.038 18.636C113.993 18.7115 113.966 18.7565 113.966 18.7565C113.966 18.7565 113.649 18.5147 113.193 18.2356C113.017 18.1352 112.769 18.0483 112.493 18.1142C112.305 18.0721 112.123 18.0511 111.953 18.0607C111.876 18.0645 111.81 17.9766 111.837 17.9125C111.919 17.7128 111.987 17.5331 112.044 17.3735C112.068 17.0285 112.015 16.8651 112.295 16.9511C112.399 16.9444 112.53 16.9635 112.703 17.0056C112.814 17.0323 112.942 17.0725 113.08 17.1212C113.306 17.1183 113.577 17.1766 113.785 17.233C114.264 17.4681 114.619 17.6554 114.619 17.6554Z" fill="#708CD5"/>
</g>
</g>
</g>
<g opacity="0.6">
<g opacity="0.6">
<g opacity="0.6">
<path opacity="0.6" d="M161.437 24.6181C161.437 24.6181 161.108 24.3811 160.695 24.0819C160.645 24.0456 160.582 24.0007 160.554 23.9797C160.453 23.907 160.394 23.864 160.394 23.864C160.394 23.864 160.121 24.3562 159.689 24.9736C159.629 25.0377 159.5 25.0797 159.219 24.9841C159 25.1447 158.776 25.2747 158.552 25.3588C158.449 25.397 158.415 25.548 158.485 25.6159C158.705 25.828 158.894 26.0221 159.058 26.196C159.024 26.4407 158.954 26.6137 159.2 26.2973C159.338 26.2476 159.496 26.1492 159.695 25.9972C159.823 25.8997 159.966 25.7764 160.118 25.634C160.304 25.6675 160.477 25.6541 160.6 25.6331C161.085 25.0596 161.437 24.6181 161.437 24.6181Z" fill="#EE6F57"/>
</g>
</g>
</g>
<g opacity="0.6">
<g opacity="0.6">
<g opacity="0.6">
<path opacity="0.6" d="M145.081 30.7102C145.081 30.7102 145.343 30.5916 145.672 30.4425C145.778 30.3948 145.913 30.3336 145.973 30.3059C146.053 30.2696 146.1 30.2485 146.1 30.2485C146.1 30.2485 146.223 30.628 146.439 31.1163C146.511 31.2607 146.645 31.425 146.892 31.491C147.023 31.6334 147.162 31.7538 147.306 31.8437C147.372 31.8848 147.376 31.9937 147.318 32.031C147.135 32.1476 146.977 32.2556 146.839 32.3531C146.713 32.5805 146.696 32.7287 146.538 32.4888C146.449 32.4352 146.352 32.3445 146.234 32.2116C146.158 32.1265 146.075 32.0205 145.989 31.901C145.817 31.8112 145.648 31.6573 145.526 31.5311C145.266 31.0657 145.081 30.7102 145.081 30.7102Z" fill="#8CBFBE"/>
</g>
</g>
</g>
<g opacity="0.6">
<g opacity="0.6">
<g opacity="0.6">
<path opacity="0.6" d="M145.051 44.8836C145.051 44.8836 144.765 44.8568 144.405 44.8234C144.273 44.811 144.107 44.7957 144.032 44.788C143.945 44.7794 143.892 44.7747 143.892 44.7747C143.892 44.7747 143.892 45.1732 143.837 45.7046C143.811 45.8919 143.731 46.1251 143.513 46.2952C143.432 46.472 143.337 46.6307 143.227 46.7626C143.176 46.8228 143.207 46.927 143.274 46.9432C143.483 46.9939 143.668 47.0445 143.83 47.0914C144.047 47.2672 144.12 47.4029 144.203 47.1258C144.272 47.0464 144.335 46.9289 144.407 46.7645C144.453 46.6594 144.499 46.5322 144.545 46.3918C144.683 46.2245 144.8 45.9894 144.88 45.8021C144.985 45.2793 145.051 44.8836 145.051 44.8836Z" fill="#FBC343"/>
</g>
</g>
</g>
<g opacity="0.6">
<g opacity="0.6">
<g opacity="0.6">
<path opacity="0.6" d="M131.002 59.4934C131.002 59.4934 131.277 59.5746 131.624 59.6779C131.755 59.717 131.919 59.7658 131.994 59.7878C132.078 59.8126 132.127 59.8279 132.127 59.8279C132.127 59.8279 131.988 60.1997 131.854 60.7177C131.813 60.9041 131.804 61.1545 131.948 61.3963C131.961 61.5912 131.994 61.7757 132.05 61.9401C132.076 62.0156 132.012 62.1016 131.943 62.092C131.73 62.0615 131.542 62.0395 131.374 62.0232C131.104 62.1045 130.987 62.2039 131.004 61.9124C130.968 61.813 130.95 61.6792 130.94 61.4985C130.935 61.3829 130.936 61.2472 130.942 61.0981C130.873 60.8888 130.847 60.6221 130.837 60.4166C130.925 59.8881 131.002 59.4934 131.002 59.4934Z" fill="#8CBFBE"/>
</g>
</g>
</g>
<g opacity="0.6">
<g opacity="0.6">
<g opacity="0.6">
<path opacity="0.6" d="M119.962 67.1941C119.962 67.1941 120.239 67.1186 120.588 67.024C120.784 66.9705 121.03 66.9036 121.142 66.874C121.227 66.851 121.277 66.8376 121.277 66.8376C121.277 66.8376 121.341 67.2314 121.481 67.7465C121.558 68.0113 121.701 68.3362 121.965 68.5522C122.073 68.7128 122.192 68.8542 122.322 68.9651C122.381 69.0158 122.368 69.1247 122.304 69.1515C122.106 69.2375 121.933 69.3187 121.781 69.3923C121.475 69.6351 121.383 69.7937 121.226 69.5414C121.146 69.4745 121.065 69.3694 120.967 69.2193C120.905 69.1228 120.839 69.0062 120.772 68.8743C120.59 68.6526 120.408 68.3295 120.277 68.0725C120.091 67.5745 119.962 67.1941 119.962 67.1941Z" fill="#FBC343"/>
</g>
</g>
</g>
<g opacity="0.6">
<g opacity="0.6">
<g opacity="0.6">
<path opacity="0.6" d="M179.742 53.9124C179.742 53.9124 179.495 53.7672 179.182 53.5846C178.945 53.446 178.648 53.2711 178.512 53.1918C178.437 53.1479 178.392 53.1211 178.392 53.1211C178.392 53.1211 178.231 53.4862 177.966 53.9507C177.788 54.2575 177.519 54.6245 177.172 54.8347C177.028 54.9628 176.878 55.0689 176.726 55.1434C176.656 55.1778 176.641 55.2858 176.695 55.3298C176.865 55.4645 177.011 55.5888 177.139 55.7006C177.479 56.08 177.567 56.2798 177.809 56.0925C177.902 56.0485 178.008 55.9682 178.139 55.8478C178.223 55.7704 178.315 55.6739 178.414 55.5639C178.682 55.3298 178.987 54.9723 179.218 54.6856C179.523 54.2479 179.742 53.9124 179.742 53.9124Z" fill="#EE6F57"/>
</g>
</g>
</g>
<g opacity="0.6">
<g opacity="0.6">
<g opacity="0.6">
<path opacity="0.6" d="M181.379 77.5479C181.379 77.5479 181.617 77.3864 181.916 77.1838C182.175 77.0079 182.502 76.7871 182.649 76.6868C182.722 76.6371 182.765 76.6084 182.765 76.6084C182.765 76.6084 182.948 76.963 183.242 77.4093C183.463 77.7419 183.785 78.1404 184.168 78.366C184.32 78.4845 184.475 78.581 184.632 78.6451C184.704 78.6747 184.726 78.7817 184.674 78.8286C184.514 78.9738 184.376 79.1076 184.256 79.2271C183.884 79.6658 183.789 79.8847 183.522 79.7231C183.425 79.6849 183.315 79.6113 183.177 79.4995C183.088 79.4278 182.989 79.337 182.884 79.2328C182.579 78.9805 182.221 78.5935 181.948 78.2828C181.619 77.8681 181.379 77.5479 181.379 77.5479Z" fill="#FBC343"/>
</g>
</g>
</g>
<g opacity="0.6">
<g opacity="0.6">
<g opacity="0.6">
<path opacity="0.6" d="M167.266 63.4002C167.266 63.4002 167.497 63.2301 167.789 63.016C168.026 62.8421 168.325 62.6222 168.46 62.5228C168.531 62.4712 168.573 62.4397 168.573 62.4397C168.573 62.4397 168.769 62.7876 169.079 63.2224C169.299 63.5254 169.617 63.8848 169.994 64.074C170.151 64.1868 170.31 64.2776 170.469 64.3359C170.541 64.3626 170.567 64.4687 170.518 64.5184C170.363 64.6704 170.231 64.808 170.115 64.9332C169.786 65.3662 169.71 65.5831 169.443 65.4264C169.346 65.392 169.233 65.3231 169.091 65.2161C168.999 65.1482 168.898 65.0613 168.789 64.9609C168.488 64.7401 168.134 64.3951 167.865 64.1161C167.518 63.7118 167.266 63.4002 167.266 63.4002Z" fill="#8CBFBE"/>
</g>
</g>
</g>
<g opacity="0.6">
<g opacity="0.6">
<g opacity="0.6">
<path opacity="0.6" d="M47.8207 15.1875C47.8207 15.1875 48.1591 15.3328 48.5853 15.5153C48.6283 15.5335 48.6828 15.5574 48.7077 15.5679C48.8109 15.6118 48.873 15.6386 48.873 15.6386C48.873 15.6386 48.6436 16.0926 48.399 16.7339C48.3818 16.8103 48.4152 16.9317 48.6255 17.1057C48.615 17.357 48.6303 17.5969 48.678 17.8148C48.7 17.9152 48.6064 18.0155 48.5203 17.9926C48.2547 17.9218 48.0176 17.8664 47.8064 17.8205C47.6573 17.9725 47.5684 18.114 47.685 17.767C47.6535 17.6342 47.6487 17.4612 47.6621 17.2299C47.6707 17.0818 47.6917 16.9088 47.7223 16.7195C47.6048 16.5896 47.5283 16.4481 47.4824 16.342C47.6669 15.6797 47.8207 15.1875 47.8207 15.1875Z" fill="#FBC343"/>
</g>
</g>
</g>
<g opacity="0.6">
<g opacity="0.6">
<g opacity="0.6">
<path opacity="0.6" d="M53.5767 23.5337C53.5767 23.5337 53.8959 23.7143 54.2963 23.9408C54.3757 23.9858 54.476 24.0431 54.5219 24.0679C54.6194 24.1234 54.6767 24.1559 54.6767 24.1559C54.6767 24.1559 54.4024 24.5812 54.0947 25.189C54.045 25.3085 54.0345 25.491 54.1988 25.7319C54.1625 25.9794 54.1511 26.2183 54.1759 26.4391C54.1874 26.5404 54.0842 26.6293 54.002 26.5978C53.7468 26.4984 53.5193 26.4181 53.3167 26.3502C53.0845 26.4458 52.9583 26.5615 53.0921 26.2222C53.0749 26.0874 53.0883 25.9154 53.1265 25.6879C53.1504 25.5417 53.1896 25.3735 53.2393 25.189C53.16 25.0036 53.1313 24.7953 53.1217 24.6385C53.374 24.0049 53.5767 23.5337 53.5767 23.5337Z" fill="#708CD5"/>
</g>
</g>
</g>
<g opacity="0.6">
<g opacity="0.6">
<g opacity="0.6">
<path opacity="0.6" d="M165.672 37.238C165.672 37.238 165.9 37.0631 166.186 36.8424C166.269 36.7783 166.374 36.698 166.422 36.6617C166.492 36.6082 166.533 36.5767 166.533 36.5767C166.533 36.5767 166.736 36.9198 167.056 37.3489C167.143 37.454 167.292 37.5592 167.532 37.5477C167.691 37.6566 167.853 37.7446 168.012 37.799C168.086 37.8239 168.114 37.93 168.065 37.9797C167.914 38.1345 167.784 38.276 167.671 38.4031C167.616 38.641 167.638 38.7854 167.435 38.5837C167.337 38.5512 167.223 38.4843 167.078 38.3811C166.985 38.3151 166.882 38.2301 166.771 38.1326C166.598 38.102 166.417 38.016 166.285 37.9405C165.93 37.5439 165.672 37.238 165.672 37.238Z" fill="#708CD5"/>
</g>
</g>
</g>
<g opacity="0.6">
<g opacity="0.6">
<g opacity="0.6">
<path opacity="0.6" d="M84.0845 16.8008C84.0845 16.8008 84.4907 16.8218 85.001 16.8486C85.0517 16.8514 85.1157 16.8543 85.1444 16.8562C85.2686 16.8629 85.3422 16.8667 85.3422 16.8667C85.3422 16.8667 85.2658 17.4239 85.2419 18.1799C85.2514 18.2736 85.3288 18.3959 85.6108 18.5029C85.6901 18.7667 85.7924 19.0095 85.9214 19.2159C85.9806 19.3105 85.9185 19.451 85.821 19.4596C85.5171 19.4873 85.6547 19.5973 85.4177 19.6298C85.3183 19.8438 84.8729 19.9471 84.8701 19.5447C84.7898 19.4195 84.7229 19.2427 84.6531 18.9971C84.6092 18.8403 84.5681 18.653 84.5317 18.4466C84.3626 18.3491 84.2326 18.222 84.1466 18.1226C84.1007 17.3685 84.0845 16.8008 84.0845 16.8008Z" fill="#8CBFBE"/>
</g>
</g>
</g>
<g opacity="0.6">
<g opacity="0.6">
<g opacity="0.6">
<path opacity="0.6" d="M100.18 16.6926C100.18 16.6926 99.7789 16.642 99.2733 16.577C99.2294 16.5713 99.173 16.5646 99.1481 16.5607C99.0258 16.5454 98.9522 16.5359 98.9522 16.5359C98.9522 16.5359 98.935 17.0969 98.8337 17.8433C98.8107 17.9246 98.7152 18.0211 98.4218 18.0689C98.3004 18.3136 98.1599 18.5343 97.9993 18.714C97.9257 18.7972 97.964 18.9453 98.0576 18.9711C98.351 19.0523 98.4839 19.0915 98.7104 19.1651L98.9598 19.2196C99.0592 19.1106 99.1548 18.9491 99.2628 18.7207C99.3326 18.5745 99.4023 18.3986 99.4731 18.2017C99.6547 18.1444 99.8018 18.0526 99.9012 17.979C100.07 17.2479 100.18 16.6926 100.18 16.6926Z" fill="#8CBFBE"/>
</g>
</g>
</g>
<g opacity="0.6">
<g opacity="0.6">
<g opacity="0.6">
<path opacity="0.6" d="M66.8042 35.1843C66.8042 35.1843 66.6952 35.45 66.5586 35.7845C66.5098 35.904 66.4486 36.054 66.42 36.1219C66.3865 36.2031 66.3665 36.2509 66.3665 36.2509C66.3665 36.2509 66.7449 36.3733 67.2333 36.5893C67.3986 36.6695 67.5917 36.8148 67.6844 37.0748C67.8287 37.2067 67.953 37.3462 68.0457 37.4915C68.0887 37.5584 68.1967 37.5612 68.2311 37.502C68.34 37.3166 68.4413 37.156 68.5341 37.0146C68.7625 36.8655 68.9116 36.8406 68.6717 36.6772C68.6162 36.5873 68.5235 36.4899 68.3878 36.3713C68.3008 36.2949 68.1948 36.2117 68.0734 36.1248C67.9597 35.9432 67.7762 35.7616 67.6271 35.6287C67.1607 35.3688 66.8042 35.1843 66.8042 35.1843Z" fill="#9490E6"/>
</g>
</g>
</g>
<g opacity="0.6">
<g opacity="0.6">
<g opacity="0.6">
<path opacity="0.6" d="M111.682 39.4927C111.682 39.4927 111.573 39.7584 111.436 40.0929C111.387 40.2123 111.326 40.3624 111.297 40.4302C111.264 40.5115 111.244 40.5602 111.244 40.5602C111.244 40.5602 111.622 40.6826 112.111 40.8986C112.276 40.9788 112.469 41.1241 112.562 41.3841C112.706 41.516 112.83 41.6555 112.923 41.8008C112.966 41.8677 113.074 41.8705 113.108 41.8113C113.217 41.6259 113.319 41.4653 113.411 41.3239C113.64 41.1748 113.789 41.1499 113.549 40.9865C113.494 40.8966 113.401 40.7992 113.265 40.6807C113.178 40.6042 113.072 40.521 112.951 40.4341C112.837 40.2525 112.653 40.0709 112.504 39.938C112.038 39.6771 111.682 39.4927 111.682 39.4927Z" fill="#EE6F57"/>
</g>
</g>
</g>
<g opacity="0.6">
<g opacity="0.6">
<g opacity="0.6">
<path opacity="0.6" d="M17.1453 35.2137C17.1453 35.2137 17.4129 35.1095 17.7502 34.9786C17.9978 34.882 18.3093 34.7616 18.4508 34.7062C18.533 34.6746 18.5808 34.6555 18.5808 34.6555C18.5808 34.6555 18.6955 35.0359 18.9029 35.5291C19.0453 35.8578 19.2699 36.2611 19.5929 36.5211C19.7219 36.6673 19.8586 36.7944 20.0029 36.89C20.0688 36.934 20.0698 37.042 20.0096 37.0754C19.8223 37.1815 19.6598 37.28 19.5164 37.3698C19.1399 37.6823 19.0309 37.862 18.8159 37.6412C18.727 37.5839 18.6314 37.4893 18.5148 37.3526C18.4403 37.2647 18.359 37.1567 18.2749 37.0334C18.0341 36.762 17.7703 36.3634 17.5744 36.0452C17.323 35.574 17.1453 35.2137 17.1453 35.2137Z" fill="#708CD5"/>
</g>
</g>
</g>
<g opacity="0.6">
<g opacity="0.6">
<g opacity="0.6">
<path opacity="0.6" d="M156.877 34.6523C156.877 34.6523 157.095 34.465 157.37 34.2299C157.422 34.1849 157.489 34.1276 157.519 34.1018C157.586 34.0444 157.625 34.011 157.625 34.011C157.625 34.011 157.847 34.3436 158.188 34.7545C158.251 34.8186 158.367 34.8692 158.578 34.8071C158.742 34.9075 158.907 34.9868 159.071 35.0327C159.145 35.0537 159.179 35.1579 159.133 35.2104C158.991 35.3729 158.868 35.521 158.762 35.6539C158.767 35.8536 158.814 35.9827 158.612 35.781C158.513 35.7542 158.395 35.6931 158.245 35.5975C158.149 35.5363 158.041 35.457 157.926 35.3653C157.78 35.3786 157.633 35.35 157.527 35.3194C157.152 34.9447 156.877 34.6523 156.877 34.6523Z" fill="#FBC343"/>
</g>
</g>
</g>
<g opacity="0.6">
<g opacity="0.6">
<g opacity="0.6">
<path opacity="0.6" d="M2.26348 74.1667C2.26348 74.1667 2.50242 74.3264 2.80348 74.5261C3.14563 74.7536 3.57571 75.0403 3.77068 75.1703C3.84331 75.219 3.88727 75.2477 3.88727 75.2477C3.88727 75.2477 3.6493 75.565 3.37404 76.0237C3.10548 76.4739 2.80252 77.0731 2.69356 77.6313C2.65056 77.8234 2.62953 78.0097 2.63622 78.1846C2.63909 78.2649 2.55307 78.329 2.49095 78.2993C2.29693 78.2076 2.12394 78.1311 1.96816 78.0661C1.28672 77.7985 1.00287 77.7641 1.00096 77.421C0.995227 77.3149 1.0153 77.1811 1.05735 77.0043C1.08411 76.8915 1.12425 76.7616 1.17299 76.6201C1.33355 76.1298 1.61358 75.4971 1.84392 75.0059C2.07807 74.5242 2.26348 74.1667 2.26348 74.1667Z" fill="#FBC343"/>
</g>
</g>
</g>
</g>
<path d="M45.5561 62.7959C42.7204 65.1039 30.8435 69.4793 30.6954 69.5758C30.1191 69.9514 29.797 70.5985 29.2111 70.9855C28.5603 71.4156 27.8033 71.6851 27.0263 71.7568C24.3025 72.0063 21.9304 70.003 21.0081 67.5516C20.0495 65.0026 20.8255 61.4397 23.5293 60.2679C25.6921 59.3332 27.185 59.425 27.185 59.425C25.6453 47.3034 31.61 45.1406 32.5724 45.0947C35.3402 41.4887 39.6993 43.7806 40.1189 44.5041C42.4662 43.9268 44.4512 48.9425 41.8545 50.3818C41.8354 50.3933 41.8163 50.4009 41.7972 50.4124C41.9052 53.2251 42.2473 55.2876 44.8374 56.2997C47.6721 57.4084 48.3956 60.4868 45.5561 62.7959Z" fill="#102048"/>
<path d="M18.2352 44.1801L14.5098 45.2534C13.1373 44.0348 12.7436 43.0141 12.1634 41.3071C11.936 40.6381 11.0338 37.9535 11.7611 37.7365C12.0086 37.6629 12.4521 37.9506 12.7053 38.3883C12.4588 37.6476 12.3632 36.8525 12.345 36.3956C12.3335 36.0496 12.4243 35.8117 12.6623 35.7209C12.8525 35.6473 13.0637 35.8145 13.2577 36.0783C13.2577 36.021 13.3858 35.3481 13.6477 35.2516C13.922 35.1493 14.2154 35.4743 14.5012 36.0391C14.5394 36.1118 14.5757 36.1882 14.6111 36.2695C14.612 36.2026 14.6216 36.1395 14.6302 36.0802C14.6741 35.9063 14.7649 35.783 14.9236 35.7218C15.4139 35.5355 15.8048 36.538 15.9357 36.8391C16.447 38.0137 17.0099 39.1797 17.3683 40.4126C17.5394 41.0013 17.786 41.5786 17.9227 42.1759C17.9676 42.3747 18.3384 44.1189 18.2352 44.1801Z" fill="#F9B384"/>
<path d="M17.9716 40.1296C18.1761 41.5985 18.0481 42.8305 17.6877 42.8811C17.3265 42.9308 16.8687 41.7811 16.6642 40.3112C16.4596 38.8422 16.3239 37.6772 16.948 37.5596C17.4498 37.4659 17.7671 38.6606 17.9716 40.1296Z" fill="#F9B384"/>
<path d="M25.194 55.4032L24.5365 58.9929H20.3045L19.7043 58.2169L16.4816 54.0613C15.8317 53.2241 15.3653 52.2569 15.1129 51.2209L13.4958 43.8121L18.0069 42.6384L20.0292 48.931C20.3809 50.0664 21.0003 51.0986 21.8298 51.9511L25.194 55.4032Z" fill="#F9B384"/>
<path d="M53.6472 40.3943L57.0811 41.4877C58.0999 40.0646 58.5061 38.1503 58.6858 36.4405C58.7556 35.7705 59.027 33.083 58.3054 33.0352C58.0598 33.0189 57.7081 33.3802 57.5647 33.8409C57.6374 33.1002 57.558 32.3413 57.4787 31.9122C57.4156 31.5882 57.2818 31.3856 57.041 31.3521C56.8489 31.3235 56.6883 31.5242 56.5631 31.8109C56.5507 31.7574 56.2898 31.16 56.026 31.1247C55.7498 31.0874 55.5453 31.4515 55.399 32.0374C55.379 32.1129 55.3608 32.1913 55.3455 32.2744C55.3302 32.2123 55.3082 32.1559 55.2882 32.1024C55.2108 31.9504 55.0999 31.8539 54.9393 31.8319C54.4443 31.7622 54.2923 32.7762 54.2349 33.0839C54.0084 34.2843 53.7303 35.4876 53.6577 36.71C53.6233 37.293 53.6109 37.8779 53.6099 38.4618C53.6099 38.6549 53.5392 40.3599 53.6472 40.3943Z" fill="#F9B384"/>
<path d="M53.0584 36.6733C53.3948 38.0467 53.9415 39.0942 54.2788 39.011C54.6162 38.9279 54.6172 37.7476 54.2807 36.3742C53.9443 35.0008 53.6547 33.9199 53.0603 34.0365C52.5834 34.1292 52.7219 35.2999 53.0584 36.6733Z" fill="#F9B384"/>
<path d="M48.4432 52.1253L50.7456 48.5958C51.0371 48.1485 51.2617 47.661 51.4117 47.1488L53.609 38.4602L58.2615 38.8396L56.2927 48.1628C56.2239 48.5757 56.1073 48.979 55.9448 49.3651L53.7189 54.6847L50.7045 56.0103L48.4432 52.1253Z" fill="#F9B384"/>
<path d="M49.0079 123.203L48.8168 125.665L47.322 145.025L47.2532 145.931L42.6428 145.212V144.306C42.6428 144.302 42.6428 144.302 42.6428 144.302L42.6313 124.587C42.6313 123.364 42.4898 122.152 42.2069 120.963C40.8766 115.397 36.9122 98.6715 37.1798 98.2434L45.9649 97.345L48.8206 118.474L48.8856 118.96C49.0767 120.367 49.1188 121.789 49.0079 123.203Z" fill="#F9B384"/>
<path d="M42.4607 148.349C42.5525 149.441 43.3238 149.427 43.6267 149.427C44.5003 149.427 52.5533 149.454 52.6422 149.427C52.6422 149.427 52.6422 148.574 52.0085 147.93C51.5545 147.462 47.6523 145.229 47.3283 145.024C44.8071 146.341 42.6442 144.3 42.6442 144.3C42.6442 144.3 42.3652 147.19 42.4607 148.349Z" fill="#6F3428"/>
<path d="M40.8652 98.6715C40.8652 98.6715 37.1034 113.917 32.8217 119.602C32.2712 120.328 31.7169 120.898 31.1587 121.261C29.9125 122.072 28.3183 121.724 26.4145 120.466C23.1803 118.337 19.0553 113.596 14.2231 107.522C14.0091 107.258 13.7988 106.99 13.5847 106.719L15.3815 103.546L17.7785 104.368L27.4046 112.683L31.0632 97.5781L40.8652 98.6715Z" fill="#F9B384"/>
<path d="M14.7744 101.65C13.8741 101.025 13.3944 101.629 13.2013 101.862C12.6451 102.536 7.49461 108.727 7.46021 108.812C7.46021 108.812 8.11679 109.355 9.01805 109.277C9.6689 109.225 13.8751 107.639 14.2383 107.518C14.8289 104.735 17.7802 104.368 17.7802 104.368C17.7802 104.368 15.7283 102.314 14.7744 101.65Z" fill="#6F3428"/>
<path d="M36.4205 112.439C36.7025 111.426 37.0054 110.421 37.3132 109.416C37.6171 108.411 37.9468 107.414 38.2622 106.411L39.2591 103.423C39.6031 102.431 39.9491 101.439 40.3218 100.455L40.4642 100.501C40.1871 101.515 39.8831 102.52 39.5764 103.525L38.6225 106.528C38.288 107.524 37.9669 108.523 37.6209 109.514C37.2788 110.507 36.9318 111.499 36.5629 112.483L36.4205 112.439Z" fill="#E28B6D"/>
<path d="M50.2502 99.9592C34.473 108.152 24.95 99.5043 22.5454 95.8648C25.9516 92.1222 28.0772 86.9154 29.1782 83.597C29.8166 81.6665 30.111 80.3743 30.111 80.3743L43.4568 79.3077L44.9325 79.1892C44.9325 79.1892 44.9516 79.2618 44.9898 79.4033C45.0931 79.8047 45.3416 80.749 45.6741 82.022C47.0695 87.3473 49.9597 98.4491 50.2502 99.9592Z" fill="#1F3C88"/>
<path opacity="0.6" d="M45.6742 82.0224C43.0555 84.0715 36.805 85.1075 29.1782 83.5974C29.8167 81.6669 30.111 80.3747 30.111 80.3747L43.4569 79.3081L44.9899 79.4037C45.0931 79.8051 45.3416 80.7494 45.6742 82.0224Z" fill="#102048"/>
<path d="M53.7212 54.6842C53.1401 55.8999 51.63 58.7632 49.8868 61.7069C48.5067 64.0427 47.7345 66.3785 47.1801 69.0355C46.385 72.8393 45.1578 77.1745 46.3429 79.5179C47.3598 81.5211 43.0093 82.0181 38.2001 82.2743C34.3733 82.4769 28.0043 82.4616 29.155 80.3513C31.2997 76.4252 28.9562 71.3025 28.3216 69.2534C27.4729 66.5085 23.9749 62.6626 21.8914 60.5447C20.9548 59.5966 20.3049 58.9926 20.3049 58.9926C20.3049 58.9926 23.9597 58.3427 25.1945 55.4029C26.0126 56.198 28.8415 58.7097 30.4128 60.1013C31.0932 60.6976 32.0069 60.9576 32.8977 60.797L35.8719 60.2695H39.0373C40.1765 60.4262 41.0252 60.5256 41.6522 60.5944C42.6767 60.7015 43.6707 60.2007 44.1944 59.3099L48.4455 52.1228C48.4455 52.1228 51.3127 54.9097 53.7212 54.6842Z" fill="#EE6F57"/>
<path d="M37.212 63.6798H36.9253C35.4506 63.6798 34.255 62.4842 34.255 61.0095V56.011H39.8824V61.0095C39.8824 62.4842 38.6867 63.6798 37.212 63.6798Z" fill="#F9B384"/>
<path d="M34.2549 57.685C34.2549 57.685 37.6506 62.522 39.8822 57.2004C39.9644 57.2157 34.2549 57.685 34.2549 57.685Z" fill="#E28B6D"/>
<path d="M40.7585 52.2797C40.8197 53.2546 40.8999 54.0841 40.8044 54.8908C40.7432 55.4031 40.6132 55.9 40.3647 56.42C38.8929 59.486 34.6265 59.7 32.4742 55.3954C30.6545 51.7522 31.4917 47.9866 31.4917 47.9866L36.2933 45.9031L40.9229 48.1701C40.6438 49.8483 40.6897 51.1596 40.7585 52.2797Z" fill="#F9B384"/>
<path d="M41.797 50.4124C38.0256 51.0565 36.0348 50.0463 34.2543 47.9781C33.1963 48.844 33.4677 49.5254 33.5327 50.8157C33.5805 51.7762 33.3406 52.7874 30.935 52.7874L29.9487 49.3238L31.0555 46.7748L35.8724 44.7783L41.5408 45.692L41.797 50.4124Z" fill="#102048"/>
<path d="M36.0083 52.4268C36.0227 52.703 35.8831 52.9343 35.6977 52.9439C35.5123 52.9534 35.3498 52.7374 35.3365 52.4612C35.3221 52.185 35.4617 51.9537 35.6471 51.9442C35.8325 51.9346 35.995 52.1506 36.0083 52.4268Z" fill="#0C1836"/>
<path d="M36.1829 51.6033C36.0596 51.4857 35.9172 51.4131 35.7671 51.3834C35.6171 51.3576 35.4604 51.3576 35.3103 51.4083C35.1603 51.4523 35.0169 51.5268 34.8831 51.6214C34.7474 51.7151 34.6279 51.8345 34.5008 51.9617L34.3976 51.9005C34.4607 51.7208 34.5696 51.5555 34.7101 51.4159C34.8506 51.2764 35.0293 51.1684 35.2281 51.1149C35.4259 51.0671 35.6439 51.0575 35.8407 51.135C36.0367 51.2057 36.2068 51.3538 36.2832 51.5383L36.1829 51.6033Z" fill="#0C1836"/>
<path d="M38.4029 52.179C38.4172 52.4552 38.5787 52.6712 38.7641 52.6616C38.9495 52.6521 39.0891 52.4208 39.0747 52.1446C39.0604 51.8684 38.8989 51.6524 38.7135 51.6619C38.5281 51.6715 38.3895 51.9028 38.4029 52.179Z" fill="#0C1836"/>
<path d="M37.9807 51.4206C38.0476 51.2725 38.1403 51.1301 38.276 51.0154C38.4079 50.8969 38.5905 50.8252 38.7749 50.8071C39.1544 50.787 39.4707 50.9877 39.6819 51.2276L39.6112 51.3251C39.4621 51.2734 39.3273 51.2056 39.1897 51.1702C39.053 51.131 38.9212 51.1043 38.795 51.111C38.6669 51.111 38.5494 51.1607 38.429 51.2257C38.3095 51.2926 38.1986 51.3929 38.0772 51.4923L37.9807 51.4206Z" fill="#0C1836"/>
<path d="M36.5579 55.5382L38.5907 55.261C38.5238 56.2368 37.1686 56.773 36.5579 55.5382Z" fill="white"/>
<path d="M37.4697 52.2778C37.5032 52.5034 37.5232 52.7299 37.6064 52.9067C37.6523 52.9927 37.6972 53.0644 37.7765 53.1208L37.9132 53.2116L37.983 53.2594C38.0126 53.2813 38.0413 53.3062 38.0661 53.333C38.2725 53.5442 38.2859 53.936 38.0546 54.1406C37.83 54.3489 37.4936 54.3212 37.3015 54.1587L37.3608 54.0593C37.5548 54.13 37.7717 54.0889 37.8702 53.9599C37.9791 53.8395 37.961 53.6484 37.8501 53.5318C37.8291 53.5031 37.7918 53.4782 37.7383 53.4381L37.5959 53.332C37.4917 53.2508 37.4105 53.1217 37.3742 52.9975C37.2948 52.7452 37.3206 52.5043 37.355 52.2778H37.4697Z" fill="#E28B6D"/>
<path opacity="0.4" d="M35.5264 55.8221C36.145 55.4458 36.3415 54.6391 35.9651 54.0205C35.5887 53.4018 34.7821 53.2054 34.1634 53.5817C33.5448 53.9581 33.3483 54.7647 33.7247 55.3834C34.101 56.0021 34.9077 56.1985 35.5264 55.8221Z" fill="#FC8879"/>
<path opacity="0.4" d="M40.8032 54.8909C40.7496 54.8985 40.6961 54.9024 40.6426 54.8985C39.9201 54.8641 39.3581 54.2525 39.3925 53.5299C39.4231 52.8074 40.0347 52.2454 40.7573 52.2798C40.8184 53.2547 40.8987 54.0842 40.8032 54.8909Z" fill="#FC8879"/>
<path d="M32.7505 52.899C31.9611 52.2472 31.1 52.1555 30.7215 52.9392C30.278 53.8576 31.617 55.923 32.9292 55.2463C33.0487 55.0676 32.7505 52.899 32.7505 52.899Z" fill="#F9B384"/>
<path d="M32.1849 53.6697C32.096 53.4308 31.9536 53.2215 31.7481 53.1078C31.5484 52.9873 31.3027 52.9892 31.1384 53.188L31.0734 53.1508C31.1173 53.0141 31.2464 52.8965 31.4021 52.8631C31.557 52.8306 31.7147 52.8698 31.8427 52.9434C31.9689 53.0217 32.0759 53.1269 32.1457 53.253C32.2183 53.3773 32.2537 53.5187 32.2585 53.6563L32.1849 53.6697Z" fill="#E28B6D"/>
<g opacity="0.4">
<path opacity="0.4" d="M34.255 64.7182C34.7329 65.0546 35.2203 65.2715 35.723 65.4235C36.2257 65.5716 36.7399 65.6404 37.2455 65.6299C37.752 65.6175 38.2519 65.5258 38.7297 65.3298C39.2086 65.1349 39.6568 64.8395 40.1194 64.4783C39.9177 65.025 39.5259 65.5162 39.0126 65.8545C38.5013 66.1967 37.8791 66.384 37.2617 66.3936C36.6434 66.4069 36.0288 66.255 35.4936 65.9711C34.9613 65.6911 34.4872 65.2601 34.255 64.7182Z" fill="#6F3428"/>
</g>
<g opacity="0.4">
<path opacity="0.4" d="M40.1194 79.308C40.7158 79.0977 41.3074 78.8865 41.8712 78.637C42.4323 78.3828 42.9656 78.0789 43.4033 77.6708C43.8515 77.2722 44.1707 76.7533 44.4106 76.1932C44.6448 75.6293 44.8034 75.0234 44.9411 74.406C44.9516 75.0377 44.8904 75.68 44.6907 76.2974C44.4957 76.9129 44.1535 77.5055 43.6632 77.9508C43.1739 78.3962 42.5861 78.7058 41.9812 78.9132C41.3752 79.1254 40.7483 79.2411 40.1194 79.308Z" fill="#6F3428"/>
</g>
<path d="M16.234 39.6355C16.019 40.0427 15.8278 40.4546 15.7982 40.8866C15.759 41.3119 15.8775 41.7486 16.1642 42.0889L16.0926 42.1749C15.8785 42.0468 15.7208 41.8347 15.6233 41.6034C15.5296 41.3692 15.4943 41.1131 15.5143 40.8617C15.5679 40.3609 15.8097 39.907 16.1423 39.5696L16.234 39.6355Z" fill="#E28B6D"/>
<path d="M13.0219 39.97C13.1901 39.775 13.407 39.6383 13.6249 39.5169C13.8428 39.3937 14.076 39.3057 14.3064 39.2178C14.5405 39.1375 14.7775 39.0697 15.0174 39.0142C15.2583 38.9636 15.5001 38.9196 15.7486 38.9053L15.7715 39.0152C15.3166 39.191 14.8521 39.3229 14.401 39.4864C14.1716 39.558 13.9508 39.6479 13.73 39.7358C13.5112 39.8276 13.2952 39.925 13.0974 40.0541L13.0219 39.97Z" fill="#E28B6D"/>
<path d="M54.4513 35.4568C54.8575 35.7024 55.2025 36.0828 55.3784 36.5549C55.4606 36.7939 55.4892 37.05 55.4558 37.3004C55.4185 37.5489 55.3172 37.7936 55.1414 37.9704L55.0506 37.9044C55.2455 37.504 55.2522 37.0509 55.1098 36.6486C54.9751 36.2367 54.6883 35.885 54.3796 35.5438L54.4513 35.4568Z" fill="#E28B6D"/>
<path d="M57.5886 35.5484C57.3697 35.4605 57.1384 35.407 56.9062 35.3592C56.673 35.3162 56.4389 35.2703 56.1999 35.2445C55.7259 35.1719 55.2451 35.1336 54.7644 35.0486L54.7654 34.9368C55.0119 34.9024 55.2576 34.8985 55.5041 34.9014C55.7498 34.909 55.9954 34.9291 56.241 34.9626C56.4847 35.0037 56.7303 35.0448 56.9683 35.1241C57.2053 35.2005 57.4443 35.2933 57.6479 35.4509L57.5886 35.5484Z" fill="#E28B6D"/>
<path opacity="0.4" d="M49.008 123.203L48.8168 125.665C45.8235 122.228 46.6454 119.995 48.8206 118.474L48.8856 118.959C49.0768 120.366 49.1188 121.788 49.008 123.203Z" fill="#FC8879"/>
<path opacity="0.4" d="M32.8213 119.601C32.2708 120.328 31.7165 120.897 31.1583 121.261C29.912 122.071 28.3179 121.723 26.4141 120.465C28.5205 118.179 30.6652 117.923 32.8213 119.601Z" fill="#FC8879"/>
<path d="M178.75 134.509C179.742 135.258 179.489 136.157 179.344 136.468C178.931 137.357 176.117 144.368 173.623 144.933C173.174 145.036 172.805 144.417 172.57 143.419C172.395 142.7 172.614 137.604 172.614 137.169C175.403 135.546 174.783 132.372 174.753 132.226L174.752 132.22C174.752 132.219 177.695 133.717 178.75 134.509Z" fill="#EE6F57"/>
<path d="M171.601 129.973L174.752 132.22L174.753 132.225C174.783 132.372 175.403 135.546 172.614 137.168L168.818 133.92L171.601 129.973Z" fill="#F9B384"/>
<path d="M161.163 148.19C161.059 149.429 160.185 149.413 159.841 149.413C158.85 149.413 149.711 149.444 149.611 149.413C149.611 149.413 149.611 148.446 150.331 147.714C150.846 147.183 155.274 144.649 155.641 144.418C158.503 145.913 160.856 143.695 160.964 143.591L160.967 143.588C160.967 143.587 161.271 146.875 161.163 148.19Z" fill="#EE6F57"/>
<path d="M161.187 139.722L160.967 143.586L160.963 143.59C160.855 143.694 158.502 145.912 155.641 144.417L156.364 139.474L161.187 139.722Z" fill="#F9B384"/>
<path d="M164.122 100.521L165.809 116.42C165.877 117.062 166.087 117.68 166.42 118.233L173.022 129.134L167.942 136.606L159.337 124.138L164.122 100.521Z" fill="#102048"/>
<path d="M166.65 94.0143C165.595 96.9236 164.976 99.9781 164.769 103.067L162.235 140.922H153.744L154.73 91.3191L154.841 85.7797L167.43 84.6787C167.648 85.2942 167.793 85.925 167.87 86.5749C168.145 88.8763 167.602 91.3879 166.65 94.0143Z" fill="#1F3C88"/>
<path d="M148.912 46.9311C148.029 46.1875 147.604 44.8877 148.127 43.7399C148.306 43.3452 148.729 43.067 149.161 43.0556C148.247 42.1495 148.763 41.2225 149.013 40.7418C149.186 40.4111 149.436 40.1091 149.769 39.9408C150.19 39.7268 150.879 39.6522 151.673 39.8606C151.616 39.0425 152.026 38.7825 152.133 38.6649C152.452 38.3151 152.874 38.0571 153.333 37.9415C153.989 37.7761 154.935 37.8707 155.401 38.4193C155.485 38.5187 155.6 38.8733 155.725 38.9001C155.816 38.9192 155.885 38.8207 155.936 38.7414C156.225 38.296 156.799 38.124 157.33 38.1097C157.779 38.0972 158.256 38.1852 158.589 38.4872C158.922 38.7882 159.046 39.3464 158.765 39.6962C159.514 39.2871 160.498 39.2422 161.191 39.7382C161.885 40.2343 162.138 41.3219 161.603 41.9871C162.026 41.9708 162.431 42.2107 162.69 42.5452C162.949 42.8797 163.079 43.2974 163.149 43.7141C163.414 45.3073 162.782 47.0419 161.494 48.0168C160.831 48.5195 160.016 48.8177 159.185 48.8617C158.525 48.897 157.867 48.7756 157.217 48.6552C156.071 48.4421 154.916 48.2271 153.83 47.8008C153.044 47.4911 152.3 47.0716 151.628 46.5583C151.359 46.3529 151.238 47.4682 150.88 47.5169C150.13 47.6211 149.44 47.3755 148.912 46.9311Z" fill="#6F3428"/>
<path d="M145.054 69.0266L142.071 72.3946C142.071 72.3946 138.108 68.9875 136.208 65.9664C136.173 65.9014 136.125 65.8402 136.09 65.7752C135.843 65.3576 135.636 64.9485 135.485 64.5595C135.486 64.5481 135.48 64.5423 135.481 64.5366C135.43 64.27 135.479 64.0606 135.661 63.9125C135.898 63.7166 135.956 63.8599 136.404 64.2633C135.991 63.3916 135.712 62.8908 135.523 62.3795C135.384 61.9924 135.398 61.6895 135.634 61.4993C135.822 61.3454 136.122 61.4582 136.44 61.6856C136.419 61.6207 136.316 60.8121 136.577 60.6066C136.85 60.3897 137.302 60.6496 137.833 61.1839C137.903 61.2517 137.973 61.3253 138.042 61.4047C138.018 61.3282 138.006 61.2537 137.994 61.1839C137.979 60.9708 138.037 60.7968 138.194 60.6707C138.681 60.2788 139.491 61.2699 139.75 61.5624C140.761 62.7045 141.828 63.8169 142.687 65.0814C143.097 65.6844 143.484 66.3028 143.858 66.9288C143.982 67.1362 145.148 68.9196 145.054 69.0266Z" fill="#E28B6D"/>
<path d="M142.072 72.3946C142.072 72.3946 150.501 79.6592 153.425 79.3562C156.349 79.0532 157.184 72.9212 157.184 72.9212L145.055 69.0276L141.791 70.2012L142.072 72.3946Z" fill="#E28B6D"/>
<path d="M160.334 48.7661V59.0078H154.589V49.7639L160.334 48.7661Z" fill="#F9B384"/>
<path d="M158.431 52.5007C158.186 53.3724 157.261 55.3029 154.589 55.7579V52.7607L158.431 52.5007Z" fill="#E28B6D"/>
<path d="M159.337 51.1478C158.271 53.2122 156.206 54.8101 153.878 54.0761C152.674 53.6977 151.978 52.7763 151.561 51.4804C151.328 50.7387 151.183 49.8786 151.091 48.9228C150.95 47.4816 150.927 45.8339 150.881 44.0868L155.342 41.1584L159.739 43.6204C159.739 43.6204 160.404 49.0834 159.337 51.1478Z" fill="#F9B384"/>
<path opacity="0.6" d="M167.87 86.5749C165.775 89.5415 159.811 91.1739 154.731 91.3191L154.841 85.7797L167.43 84.6787C167.648 85.2942 167.794 85.925 167.87 86.5749Z" fill="#102048"/>
<path d="M167.33 86.3111C163.657 88.2684 158.859 88.5666 153.702 88.2837C153.059 88.4022 152.467 87.9167 152.459 87.263C152.417 85.1871 152.379 83.1151 152.337 81.0393C152.287 78.6117 152.241 76.1803 152.195 73.7528C152.188 73.2864 152.176 72.82 152.161 72.3536C152.062 69.3067 151.851 66.2254 151.943 63.1938C152.039 60.0514 153.625 57.9832 156.557 56.9089C158.641 56.1443 161.256 55.655 162.842 57.6659C165.56 61.1141 165.828 65.7284 166.765 69.8342C167.778 74.2612 168.412 78.7646 168.902 83.2757C169.035 84.4952 168.795 85.3783 167.33 86.3111Z" fill="#708CD5"/>
<path opacity="0.3" d="M161.707 72.824C161.24 75.9167 159.226 81.4944 152.337 81.0395C152.287 78.6119 152.241 76.1805 152.195 73.7529C152.188 73.2866 152.176 72.8202 152.161 72.3538L161.707 72.824Z" fill="#1F3C88"/>
<path d="M162.135 72.3921C162.135 72.3921 161.378 74.9458 159.857 76.582C159.398 77.079 158.87 77.488 158.27 77.7212C157.586 77.9888 156.504 77.9353 155.174 77.6065C152.108 76.8534 147.704 74.6514 143.705 71.5663L142.493 65.9772C146.347 65.4458 151.393 69.0011 155.541 70.6603L162.135 72.3921Z" fill="#F9B384"/>
<path d="M160.204 44.8476C160.346 44.4271 160.292 43.9454 160.063 43.567C159.834 43.1847 159.432 42.9132 158.996 42.8406C158.935 42.5768 158.721 42.3666 158.476 42.2442C158.232 42.1219 157.956 42.076 157.689 42.0225C157.559 41.9957 157.429 41.969 157.31 41.9078C157.146 41.8275 157.016 41.6937 156.875 41.5752C156.32 41.1088 155.552 40.91 154.837 41.04C154.439 41.1165 154.061 41.2885 153.659 41.3458C153.166 41.4185 152.631 41.3267 152.188 41.5599C151.821 41.7511 151.595 42.1295 151.282 42.3933C150.93 42.6915 150.425 42.9132 150.357 43.3682C150.337 43.4829 150.349 43.6128 150.276 43.7046C150.215 43.7849 150.108 43.8116 150.016 43.8537C149.817 43.9416 149.691 44.0754 149.615 44.2398C149.424 44.6412 149.565 45.2032 149.81 45.5625C150.062 45.9334 150.41 46.1398 150.788 46.2048C151.033 46.3004 151.297 46.3424 151.561 46.3118C152.184 46.243 152.773 45.7346 152.872 45.1076C152.876 45.3446 152.987 45.5816 153.159 45.746C153.372 45.9496 153.657 46.0595 153.946 46.0939C154.547 46.1646 155.27 46.0471 155.529 45.4173C155.495 45.5014 155.953 45.9104 156.022 45.9754C156.118 46.0633 156.221 46.1474 156.328 46.2239C156.446 46.3118 156.569 46.3921 156.695 46.4686C156.79 46.5221 156.89 46.5756 156.989 46.6215C157.494 46.8623 158.041 46.9923 158.614 46.9273C159.413 46.8394 160.097 46.4074 160.571 45.7881C160.575 45.444 160.445 45.0961 160.204 44.8476Z" fill="#6F3428"/>
<path d="M146.455 67.9981L143.705 71.5592C143.705 71.5592 139.521 68.4272 137.423 65.5399C137.383 65.4769 137.332 65.4195 137.291 65.3574C137.017 64.957 136.783 64.5632 136.605 64.1857C136.605 64.1742 136.599 64.1685 136.599 64.1627C136.531 63.8999 136.565 63.6887 136.737 63.5281C136.96 63.3169 137.304 63.6782 137.778 64.05C137.178 63.3408 136.72 62.5055 136.497 62.0076C136.332 61.63 136.326 61.3271 136.549 61.1216C136.726 60.9563 137.033 61.0471 137.365 61.2535C137.339 61.1904 137.183 60.3905 137.429 60.1678C137.686 59.9336 138.154 60.162 138.721 60.659C138.796 60.7221 138.869 60.7909 138.944 60.8645C138.915 60.79 138.898 60.7164 138.881 60.6476C138.852 60.4363 138.898 60.2586 139.046 60.1219C139.505 59.6985 140.381 60.6323 140.659 60.9075C141.744 61.9789 142.883 63.0168 143.827 64.221C144.277 64.7954 144.704 65.3861 145.12 65.9853C145.258 66.1851 146.542 67.8853 146.455 67.9981Z" fill="#F9B384"/>
<path d="M144.613 64.1448C145.351 66.0773 145.622 67.7699 145.215 67.9247C144.81 68.0795 143.883 66.6383 143.144 64.7058C142.407 62.7733 141.851 61.2346 142.542 60.9259C143.098 60.6774 143.875 62.2123 144.613 64.1448Z" fill="#F9B384"/>
<path opacity="0.3" d="M162.134 61.1968C164.32 65.0837 164.672 71.6515 163.698 74.2741L163 74.0571L162.134 61.1968Z" fill="#1F3C88"/>
<path d="M155.54 70.6609C155.54 70.6609 155.673 60.8713 159.336 60.2052C162.883 59.5601 163.931 61.937 163 74.0576C162.866 74.0566 155.54 70.6609 155.54 70.6609Z" fill="#708CD5"/>
<path d="M162.969 74.1254C162.328 73.8836 161.697 73.6217 161.068 73.3551C160.437 73.0923 159.818 72.8055 159.192 72.5312C158.57 72.2464 157.952 71.9568 157.337 71.6615C156.723 71.3605 156.11 71.0575 155.51 70.7287L155.572 70.593C156.214 70.83 156.845 71.0929 157.475 71.3586C158.102 71.629 158.727 71.9062 159.349 72.1872C159.967 72.4796 160.59 72.7587 161.202 73.0617C161.817 73.3608 162.429 73.6647 163.032 73.9897L162.969 74.1254Z" fill="#1F3C88"/>
<path d="M158.331 60.7614C158.158 60.9344 157.981 61.0529 157.824 61.2068C157.743 61.2794 157.667 61.3568 157.596 61.439C157.521 61.5164 157.454 61.6015 157.392 61.6894C157.128 62.0316 156.919 62.4158 156.754 62.8191C156.426 63.6267 156.201 64.4821 156.062 65.3547C155.993 65.7905 155.929 66.2282 155.875 66.6678C155.837 67.1094 155.786 67.55 155.759 67.9934C155.689 68.8794 155.665 69.7682 155.616 70.6599L155.467 70.6618C155.441 70.2155 155.43 69.7673 155.412 69.319C155.403 68.8708 155.421 68.4226 155.425 67.9743C155.46 67.0778 155.542 66.1804 155.69 65.2897C155.851 64.4037 156.074 63.5158 156.46 62.6872C156.652 62.2743 156.889 61.8748 157.191 61.526C157.483 61.1733 157.884 60.8962 158.225 60.6572L158.331 60.7614Z" fill="#1F3C88"/>
<path opacity="0.4" d="M159.857 76.5821C159.399 77.079 158.869 77.4833 158.271 77.7213C157.554 78.0061 156.128 77.9162 154.674 77.4737C155.537 75.374 159.025 75.4935 159.857 76.5821Z" fill="#FC8879"/>
<path d="M138.761 60.6201C139.232 61.0148 139.66 61.4506 140.088 61.8865C140.298 62.1082 140.505 62.3328 140.708 62.5612C140.908 62.7925 141.107 63.0238 141.288 63.2704L141.204 63.3449C140.965 63.1499 140.743 62.9397 140.522 62.7294C140.304 62.5163 140.09 62.2993 139.879 62.0795C139.465 61.6322 139.051 61.1869 138.68 60.6985L138.761 60.6201Z" fill="#E28B6D"/>
<path d="M137.378 61.1685C137.888 61.632 138.354 62.1366 138.822 62.6393C139.051 62.8955 139.277 63.1535 139.499 63.4154C139.718 63.6801 139.936 63.9458 140.138 64.2258L140.054 64.3004C139.796 64.071 139.553 63.8273 139.312 63.5826C139.074 63.3351 138.841 63.0837 138.61 62.8295C138.157 62.3144 137.704 61.7992 137.295 61.244L137.378 61.1685Z" fill="#E28B6D"/>
<path d="M137.62 63.7671C137.926 63.9907 138.191 64.2574 138.456 64.5221C138.584 64.6588 138.709 64.7983 138.831 64.9407C138.948 65.087 139.066 65.2332 139.166 65.3937L139.082 65.4683C138.925 65.3584 138.785 65.2341 138.645 65.1089C138.51 64.9809 138.378 64.849 138.248 64.7152C137.998 64.439 137.748 64.1628 137.539 63.8445L137.62 63.7671Z" fill="#E28B6D"/>
<path d="M155.379 48.0291C155.4 48.3149 155.573 48.5347 155.765 48.5204C155.957 48.506 156.096 48.2633 156.075 47.9775C156.054 47.6917 155.881 47.4719 155.689 47.4863C155.497 47.5006 155.358 47.7434 155.379 48.0291Z" fill="#2D1510"/>
<path d="M154.993 47.1443C155.147 46.8242 155.523 46.6397 155.89 46.6703C156.073 46.6894 156.247 46.7639 156.388 46.8691C156.528 46.978 156.632 47.1166 156.708 47.2657L156.619 47.3345C156.491 47.2409 156.377 47.1434 156.249 47.0784C156.125 47.0096 155.995 46.9656 155.861 46.9532C155.727 46.9322 155.593 46.958 155.458 46.9971C155.324 47.0411 155.199 47.1137 155.083 47.2093L154.993 47.1443Z" fill="#2D1510"/>
<path d="M152.886 48.082C152.908 48.3678 152.769 48.6105 152.577 48.6249C152.385 48.6392 152.212 48.4194 152.191 48.1336C152.17 47.8478 152.308 47.6051 152.5 47.5908C152.692 47.5764 152.865 47.7962 152.886 48.082Z" fill="#2D1510"/>
<path d="M153.202 47.2168C152.942 47.0591 152.645 46.9645 152.374 47.0075C152.238 47.0237 152.111 47.0744 151.992 47.1527C151.873 47.2311 151.77 47.342 151.656 47.4557L151.558 47.4003C151.613 47.2378 151.703 47.0839 151.836 46.9568C151.972 46.8354 152.15 46.7494 152.336 46.7246C152.711 46.6863 153.08 46.8469 153.282 47.1374L153.202 47.2168Z" fill="#2D1510"/>
<path d="M155.221 50.9816L153.029 50.9109C153.505 51.9421 154.285 52.2451 155.221 50.9816Z" fill="white"/>
<path d="M154.077 47.8047C154.138 48.0675 154.194 48.3485 154.121 48.6438C154.088 48.7881 154.003 48.9372 153.894 49.0319C153.797 49.1226 153.667 49.2211 153.613 49.2985C153.481 49.4734 153.499 49.7295 153.683 49.8557C153.856 49.9905 154.139 49.9818 154.357 49.8586L154.413 49.9341C154.201 50.1281 153.85 50.2026 153.566 50.0287C153.427 49.9465 153.325 49.7907 153.301 49.6254C153.278 49.46 153.323 49.2899 153.421 49.158C153.533 49.0204 153.631 48.9669 153.732 48.8742C153.83 48.7939 153.882 48.6973 153.926 48.5846C154.005 48.3552 153.989 48.0847 153.983 47.8152L154.077 47.8047Z" fill="#E28B6D"/>
<path opacity="0.4" d="M157.478 51.439C158.188 51.2738 158.629 50.5648 158.464 49.8553C158.299 49.1459 157.59 48.7046 156.88 48.8697C156.171 49.0348 155.729 49.7438 155.894 50.4533C156.06 51.1628 156.769 51.6041 157.478 51.439Z" fill="#FC8879"/>
<path opacity="0.4" d="M151.56 51.4805C151.327 50.7388 151.182 49.8787 151.09 48.9229C151.729 48.9153 152.294 49.3702 152.405 50.0201C152.512 50.6586 152.145 51.2664 151.56 51.4805Z" fill="#FC8879"/>
<path d="M159.195 47.6293C159.605 47.1534 160.147 46.8619 160.836 46.9632C161.81 47.1056 161.656 50.8654 159.298 50.1515C158.835 50.1515 159.195 47.6293 159.195 47.6293Z" fill="#F9B384"/>
<path d="M159.968 48.2805C159.906 48.0425 159.923 47.7424 160.147 47.5264C160.26 47.4251 160.435 47.3821 160.58 47.4232C160.723 47.4681 160.83 47.5627 160.896 47.6736L160.829 47.7386C160.728 47.6812 160.629 47.6344 160.538 47.6277C160.447 47.6191 160.368 47.6468 160.302 47.7042C160.159 47.8188 160.108 48.0463 160.061 48.2747L159.968 48.2805Z" fill="#E28B6D"/>
<path d="M83.2293 139.501L82.177 143.254C83.2522 145.529 85.7801 146.335 88.158 144.178L89.0124 140.149L83.2293 139.501Z" fill="#F9B384"/>
<path d="M82.1758 143.254L80.1487 150.482C79.7855 152.041 81.5298 154.632 82.3211 154.561C83.5836 154.631 86.1431 153.521 86.5063 151.963L88.1568 144.178C85.1759 145.947 83.6477 144.966 82.1758 143.254Z" fill="#102048"/>
<path d="M98.2083 138.559L98.4548 142.898L98.4596 142.903C99.3857 144.832 103.28 146.505 104.437 143.832L103.624 138.281L98.2083 138.559Z" fill="#F9B384"/>
<path d="M98.2352 148.067C98.3518 149.458 99.3343 149.44 99.7204 149.44C100.833 149.44 111.096 149.476 111.208 149.44C111.208 149.44 111.208 148.354 110.401 147.533C109.822 146.937 104.85 144.092 104.437 143.831C103.472 145.126 100.604 145.126 98.4598 142.902L98.455 142.897C98.455 142.897 98.1138 146.591 98.2352 148.067Z" fill="#102048"/>
<path d="M77.0453 78.9082C78.3804 80.0379 82.4366 82.3479 84.285 81.783C86.1334 81.2182 85.2608 76.9566 85.2608 76.9566L79.3046 75.2104L77.0453 78.9082Z" fill="#F9B384"/>
<path d="M101.189 39.7693C101.176 39.7818 101.16 39.7942 101.144 39.8066C98.4736 41.7907 96.5555 38.0605 95.1515 37.7202C93.7504 37.3752 91.9517 38.7018 90.7522 37.8808C90.7522 37.8808 90.0087 42.863 90.5219 44.5059C82.8493 41.4744 87.0306 33.7979 89.1294 34.6724C90.6003 29.5382 95.6313 31.8215 97.8419 32.6434C102.918 30.4251 103.806 37.7365 101.189 39.7693Z" fill="#102048"/>
<path d="M125.381 36.4478C125.225 36.3962 125.886 33.9553 125.988 33.6819C126.244 32.9928 126.632 32.3879 127.357 32.0017C129.214 31.0097 131.467 30.8262 133.592 30.7402C134.924 30.6866 137.971 30.5137 138.675 31.5344C139.335 32.493 137.665 33.162 136.898 33.3407C135.428 33.6829 133.764 33.7106 132.506 34.5449C131.348 35.3134 130.268 36.8769 130.629 38.1844C130.629 38.1844 125.389 36.4507 125.381 36.4478Z" fill="#F9B384"/>
<path d="M108.638 75.7419L105.489 140.368L97.4112 140.641L97.6845 103.946L90.0176 141.052L81.5278 140.778L88.5114 73.688L108.638 75.7419Z" fill="#102048"/>
<path d="M108.571 79.8315C108.304 80.0112 107.998 80.1871 107.661 80.3591C105.972 81.2307 103.46 82.003 100.677 82.4388C98.6891 82.7484 96.5597 82.8861 94.4877 82.7561C92.0792 82.6146 89.7587 82.1138 87.8281 81.116L87.9696 79.1816L89.881 52.9793L103.743 52.3638L108.571 79.8315Z" fill="white"/>
<path d="M95.9403 54.6737C94.2391 54.6737 92.8648 53.2879 92.8772 51.5876L92.5857 45.3467H98.7129L99.0034 51.6335C98.991 53.3156 97.6224 54.6737 95.9403 54.6737Z" fill="#F9B384"/>
<path d="M92.6738 47.6445C93.9612 49.6553 96.8609 51.1138 98.7915 47.4514L92.6738 47.6445Z" fill="#E28B6D"/>
<path d="M100.174 44.1635C100.028 45.6315 99.5849 46.8587 98.6635 47.5583C96.7444 49.0224 92.9636 49.0492 91.01 45.9182C89.0603 42.7834 89.2133 37.2899 89.2133 37.2899L93.8849 35.1873L98.7132 35.4434L99.5849 37.5995C99.8487 38.8993 100.078 40.2832 100.177 41.606C100.242 42.5005 100.25 43.3683 100.174 44.1635Z" fill="#F9B384"/>
<path d="M133.365 9.93311H130.964V27.7116H133.365V9.93311Z" fill="#BB9132"/>
<path d="M137.125 13.4655L138.295 20.2932L132.163 17.0667L126.031 20.2932L126.823 15.6943L127.205 13.4655L122.243 8.62948L129.097 7.6317L132.163 1.41943L135.229 7.6317L136.778 7.85725L142.088 8.62948L137.125 13.4655Z" fill="#FBC343"/>
<path d="M138.122 29.4378H126.206L126.359 28.7459L127.25 24.7548C127.368 24.2348 127.827 23.864 128.358 23.864H135.966C136.497 23.864 136.96 24.2348 137.075 24.7548L138.122 29.4378Z" fill="#FBC343"/>
<path opacity="0.3" d="M137.125 13.4657L138.295 20.2934L132.163 17.0669L126.031 20.2934L126.822 15.6944C132.277 14.6622 135.248 10.8967 136.777 7.85742L142.087 8.62965L137.125 13.4657Z" fill="#BB9132"/>
<path opacity="0.9" d="M129.38 9.30581C129.472 9.73111 128.848 10.2271 127.987 10.4116C127.126 10.597 126.354 10.402 126.262 9.97578C126.17 9.55048 126.794 9.05446 127.655 8.87C128.516 8.68554 129.289 8.87956 129.38 9.30581Z" fill="white"/>
<path opacity="0.3" d="M138.122 29.4378H126.206L126.359 28.7459C129.498 28.5318 132.468 26.1043 133.879 23.864H135.966C136.497 23.864 136.96 24.2348 137.075 24.7548L138.122 29.4378Z" fill="#BB9132"/>
<path d="M139.168 30.8499H125.162C124.575 30.8499 124.099 30.3739 124.099 29.7861C124.099 29.1993 124.574 28.7224 125.162 28.7224H139.168C139.754 28.7224 140.231 29.1984 140.231 29.7861C140.23 30.3739 139.754 30.8499 139.168 30.8499Z" fill="#BB9132"/>
<path d="M122.087 0.000732422C122.839 0.46044 123.5 1.01859 124.139 1.59967C124.456 1.89308 124.763 2.19605 125.055 2.51622C125.348 2.83544 125.628 3.16803 125.875 3.53694L125.672 3.75581C125.287 3.53503 124.936 3.27794 124.597 3.00842C124.258 2.73891 123.934 2.45314 123.62 2.15687C122.996 1.55953 122.393 0.938306 121.883 0.219595L122.087 0.000732422Z" fill="#FBC343"/>
<path d="M142.446 0.218864C141.936 0.937575 141.334 1.5588 140.71 2.15613C140.395 2.45241 140.071 2.73817 139.732 3.00769C139.393 3.27816 139.042 3.5343 138.658 3.75508L138.454 3.53621C138.702 3.16825 138.982 2.8347 139.274 2.51549C139.566 2.19532 139.873 1.8914 140.191 1.59894C140.829 1.01786 141.49 0.459707 142.242 0L142.446 0.218864Z" fill="#FBC343"/>
<path d="M139.702 4.85123C140.049 4.47085 140.458 4.20993 140.882 3.97769C141.095 3.86396 141.316 3.76361 141.546 3.68333C141.777 3.60113 142.015 3.53614 142.276 3.51416L142.413 3.7789C142.245 3.9796 142.055 4.1373 141.856 4.27875C141.657 4.42115 141.449 4.54348 141.234 4.65339C140.8 4.86652 140.351 5.05098 139.84 5.11788L139.702 4.85123Z" fill="#FBC343"/>
<path d="M124.489 5.11715C123.979 5.0512 123.53 4.86675 123.096 4.65266C122.881 4.54275 122.672 4.42042 122.474 4.27801C122.275 4.13657 122.085 3.97887 121.917 3.77817L122.054 3.51343C122.315 3.53541 122.553 3.6004 122.783 3.68259C123.014 3.76383 123.234 3.86418 123.448 3.97696C123.872 4.2092 124.28 4.47107 124.628 4.8505L124.489 5.11715Z" fill="#FBC343"/>
<g opacity="0.3">
<path opacity="0.3" d="M94.2488 55.7271C94.6483 55.9632 95.0124 56.1649 95.3851 56.2834C95.7541 56.4076 96.1201 56.4411 96.4737 56.3962C96.8283 56.3512 97.1762 56.2222 97.5164 56.0234C97.8605 55.8265 98.1845 55.5599 98.5505 55.2722C98.4588 55.7252 98.2294 56.1486 97.8901 56.4956C97.5518 56.8396 97.0806 57.0938 96.5683 57.156C96.058 57.2219 95.5275 57.0938 95.1195 56.8215C94.7094 56.5481 94.4017 56.1658 94.2488 55.7271Z" fill="#1F3C88"/>
</g>
<path opacity="0.3" d="M107.662 80.3591C105.972 81.2307 103.461 82.0029 100.678 82.4387C99.0989 77.6066 98.3725 67.816 99.4085 57.7502L107.662 80.3591Z" fill="#1F3C88"/>
<path opacity="0.3" d="M94.4877 82.7558C92.0792 82.6143 89.7587 82.1135 87.8281 81.1157L87.9696 79.1813L93.7575 57.0657C95.4778 66.2942 95.4434 77.2699 94.4877 82.7558Z" fill="#1F3C88"/>
<path d="M98.9852 50.8563C104.873 50.0936 110.67 49.4408 116.34 48.7546C117.325 48.6352 118.181 48.0302 118.626 47.1442L124.692 35.0427L131.709 36.72L126.542 50.1978C125.224 53.6346 122.385 56.2648 118.858 57.317L108.954 60.2702C108.954 60.2702 108.198 68.1235 113.948 83.938C113.743 85.17 108.814 86.745 103.884 86.5395C101.557 84.4168 100.697 79.8494 98.9852 50.8563Z" fill="#1F3C88"/>
<path d="M92.8762 51.587C92.8762 51.587 87.6436 51.4723 80.6992 52.6096C78.4475 52.9785 76.3822 54.0986 74.8654 55.8046C72.046 58.9757 68.6857 63.9274 66.7121 66.9504C65.7181 68.4729 65.9198 70.4799 67.1976 71.773L75.8126 81.1153L81.1523 75.4679L74.8884 68.622L81.9398 60.201C81.9398 60.201 83.1717 59.6534 84.0625 60.3377C84.3368 61.2274 84.4562 71.7673 80.554 87.0341C82.1281 88.2661 90.1381 89.0192 91.9186 87.3763C92.3286 86.7608 96.2825 67.6872 92.8762 51.587Z" fill="#1F3C88"/>
<path d="M94.0372 41.6127C94.0697 41.9539 93.9101 42.2492 93.6798 42.2712C93.4494 42.2932 93.2373 42.0342 93.2048 41.693C93.1723 41.3518 93.3319 41.0565 93.5622 41.0345C93.7925 41.0125 94.0047 41.2706 94.0372 41.6127Z" fill="#0C1836"/>
<path d="M94.2141 40.5901C93.8739 40.4142 93.4553 40.4094 93.0959 40.4954C92.7251 40.5824 92.4231 40.8051 92.1402 41.1176L92.0083 41.0469C92.0762 40.8309 92.1966 40.6216 92.3744 40.4591C92.5483 40.2928 92.7729 40.182 93.0061 40.1256C93.2393 40.0721 93.483 40.0673 93.7133 40.1246C93.9408 40.1781 94.1692 40.2842 94.3202 40.483L94.2141 40.5901Z" fill="#0C1836"/>
<path d="M96.9929 41.1723C97.0254 41.5135 97.2386 41.7725 97.4679 41.7505C97.6983 41.7285 97.8579 41.4341 97.8254 41.092C97.7929 40.7508 97.5798 40.4918 97.3504 40.5138C97.12 40.5367 96.9595 40.8311 96.9929 41.1723Z" fill="#0C1836"/>
<path d="M96.3282 40.134C96.4334 39.9152 96.615 39.7556 96.8128 39.6342C97.0116 39.5099 97.241 39.4335 97.4818 39.4096C97.7217 39.3857 97.9769 39.4297 98.1929 39.5472C98.4108 39.661 98.5761 39.8454 98.6841 40.0442L98.5685 40.1388C98.2321 39.8846 97.8909 39.7537 97.5143 39.789C97.1454 39.8215 96.7564 39.9706 96.4515 40.2191L96.3282 40.134Z" fill="#0C1836"/>
<path d="M94.4625 44.9902L97.6843 44.4417C97.6289 45.9976 95.5005 46.9218 94.4625 44.9902Z" fill="white"/>
<path d="M101.188 39.7689C101.176 39.7814 101.16 39.7938 101.143 39.8062C98.4729 41.7903 96.5548 38.0601 95.1508 37.7199C93.7497 37.3748 91.951 38.7014 90.7516 37.8804C90.7516 37.8804 89.21 41.279 90.5212 44.5056L88.1883 41.0926C88.1883 41.0926 87.9044 37.2888 87.827 37.2888C87.827 37.2315 90.2422 35.3668 90.2422 35.3668L94.9903 33.592L99.8416 34.414L100.61 37.1904L101.188 39.7689Z" fill="#102048"/>
<path d="M90.2229 41.7913C88.9221 41.7913 88.1126 42.0168 88.2378 43.3931C88.3401 44.5199 89.573 46.5374 91.2847 45.0541L90.2229 41.7913Z" fill="#F9B384"/>
<g opacity="0.6">
<path opacity="0.6" d="M96.76 108.056C96.9531 106.891 97.1538 105.727 97.3707 104.567C97.581 103.405 97.8171 102.248 98.0388 101.089L98.7565 97.6215C99.0079 96.4679 99.2612 95.3153 99.5431 94.1675L99.6893 94.1971C99.5068 95.3641 99.2965 96.5262 99.0843 97.6875L98.4106 101.163C98.1688 102.319 97.9413 103.477 97.6871 104.63C97.4405 105.784 97.1777 106.935 96.9062 108.085L96.76 108.056Z" fill="#708CD5"/>
</g>
<path d="M90.0834 43.5632C90.0423 43.3749 90.0003 43.1943 89.9123 43.0471C89.8244 42.9028 89.7002 42.7958 89.5539 42.7747C89.4115 42.7422 89.2538 42.7891 89.1315 42.898C89.0034 43.0013 88.9126 43.158 88.84 43.3338L88.7301 43.3138C88.732 43.1064 88.8037 42.8885 88.9585 42.7174C89.1105 42.5473 89.3637 42.445 89.6084 42.4957C89.8512 42.5473 90.0481 42.7298 90.1283 42.9382C90.2153 43.1456 90.222 43.3616 90.1952 43.5632H90.0834Z" fill="#E28B6D"/>
<path d="M95.641 41.0803C95.6878 41.3995 95.7232 41.7226 95.8627 41.9768C95.9382 42.101 96.0185 42.2043 96.1504 42.2798C96.289 42.3677 96.4152 42.4126 96.5757 42.5522C96.7172 42.6869 96.8041 42.879 96.8108 43.0797C96.8166 43.2804 96.7267 43.484 96.5795 43.6092C96.2794 43.8711 95.8494 43.8539 95.5598 43.6675L95.6104 43.5671C95.8933 43.6684 96.2288 43.6216 96.4066 43.4276C96.5987 43.2412 96.57 42.9344 96.3779 42.7548C96.2986 42.6745 96.1246 42.5846 95.9927 42.4967C95.8455 42.4069 95.7146 42.2473 95.6458 42.0838C95.5015 41.7493 95.5101 41.4062 95.5292 41.0841L95.641 41.0803Z" fill="#E28B6D"/>
<path opacity="0.4" d="M100.173 44.1636C100.039 44.2095 99.8937 44.2324 99.7446 44.2324C98.9992 44.2324 98.3951 43.6284 98.3951 42.8829C98.3951 42.1375 98.9992 41.5334 99.7446 41.5334C99.8937 41.5334 100.039 41.5564 100.177 41.6061C100.242 42.5006 100.249 43.3685 100.173 44.1636Z" fill="#FC8879"/>
<path opacity="0.4" d="M92.4406 45.5797C93.1854 45.5763 93.7864 44.9698 93.783 44.225C93.7796 43.4802 93.1731 42.8792 92.4284 42.8826C91.6836 42.8859 91.0826 43.4924 91.0859 44.2372C91.0893 44.982 91.6958 45.583 92.4406 45.5797Z" fill="#FC8879"/>
</svg>
